<svg width="92" height="92" viewBox="0 0 92 92" fill="none" xmlns="http://www.w3.org/2000/svg">
<path d="M41 2.88675C44.094 1.10042 47.906 1.10042 51 2.88675L80.8372 20.1132C83.9312 21.8996 85.8372 25.2008 85.8372 28.7735V63.2265C85.8372 66.7992 83.9312 70.1004 80.8372 71.8867L51 89.1133C47.906 90.8996 44.094 90.8996 41 89.1133L11.1628 71.8867C8.06882 70.1004 6.16283 66.7992 6.16283 63.2265V28.7735C6.16283 25.2008 8.06882 21.8996 11.1628 20.1132L41 2.88675Z" fill="#A03581"/>
<path fill-rule="evenodd" clip-rule="evenodd" d="M84.6721 67.911C83.8068 69.5427 82.4919 70.9314 80.8371 71.8868L51 89.1133C47.906 90.8996 44.094 90.8996 41 89.1133L11.1628 71.8868C9.50808 70.9314 8.19316 69.5427 7.32788 67.911C7.8115 67.2527 8.43191 66.6898 9.16282 66.2678L43 46.7319C44.8564 45.6602 47.1436 45.6602 49 46.7319L82.8372 66.2678C83.5681 66.6898 84.1885 67.2527 84.6721 67.911Z" fill="#8C3273"/>
<path d="M72.6166 61.3275C69.2632 67.265 64.0207 71.9108 57.723 74.5259C51.4254 77.1411 44.4341 77.5754 37.8612 75.7598C31.2883 73.9442 25.5111 69.983 21.4486 64.5062C17.3861 59.0294 15.2715 52.3514 15.4411 45.5345C15.6107 38.7175 18.0548 32.153 22.3847 26.885C26.7145 21.617 32.6815 17.948 39.3366 16.4615C45.9917 14.9751 52.9527 15.7566 59.1125 18.6816C65.2723 21.6067 70.2773 26.5074 73.3313 32.6044L59.4204 39.5724C57.9208 36.5787 55.4633 34.1723 52.4386 32.736C49.414 31.2997 45.9959 30.916 42.7281 31.6459C39.4603 32.3758 36.5303 34.1773 34.4042 36.7641C32.2782 39.3508 31.078 42.5742 30.9948 45.9215C30.9115 49.2688 31.9498 52.5478 33.9446 55.2371C35.9394 57.9264 38.7761 59.8714 42.0036 60.7629C45.2311 61.6544 48.664 61.4412 51.7563 60.1571C54.8487 58.873 57.4229 56.5918 59.0695 53.6763L72.6166 61.3275Z" fill="#1C1B1F"/>
<rect x="61.3333" y="40.7905" width="4.02991" height="11.9915" fill="#1C1B1F"/>
<rect x="57.3035" y="44.9188" width="11.9915" height="4.02991" fill="#1C1B1F"/>
<rect x="75.094" y="40.7905" width="4.02991" height="11.9915" fill="#1C1B1F"/>
<rect x="71.0642" y="44.9188" width="11.9915" height="4.02991" fill="#1C1B1F"/>
</svg>
