<svg width="321" height="342" viewBox="0 0 321 342" fill="none" xmlns="http://www.w3.org/2000/svg">
<path d="M51.9678 -0.00341797L0 31.7999L0.277344 31.9874L10.4782 31.081L50.558 7.93297L51.9678 -0.00341797Z" fill="#AF6199"/>
<path d="M51.4447 0.488281L51.9533 0C51.8333 79.92 51.7799 159.84 51.9799 239.76C43.1447 245.085 5.90197 267.522 0.0199248 271C0.00659147 191.267 0.0332585 111.533 0.0065918 31.8C11.8582 20.8843 41.3077 11.7819 51.4447 0.488281Z" fill="#832C6A"/>
<path d="M51.9531 0H280.766C288.94 1.36 296.713 7.61333 297.073 16.36C297.326 28.8 297.086 41.24 297.166 53.6933C297.18 115.693 297.153 177.707 297.18 239.707C215.446 239.84 133.713 239.733 51.9797 239.76C51.7797 159.84 51.8331 79.92 51.9531 0ZM138.606 54.04C138.646 98.2 138.606 142.373 138.633 186.533C149.7 186.507 160.766 186.6 171.833 186.48C171.753 168.667 171.806 150.84 171.793 133.013C186.286 133.04 200.78 132.92 215.286 133.067C215.42 125.213 215.5 117.333 215.233 109.48C200.753 109.64 186.286 109.52 171.806 109.547C171.726 99.04 171.9 88.5333 171.7 78.0133C188.913 77.6933 206.14 77.9733 223.353 77.88C223.34 69.9333 223.34 61.9733 223.353 54.0267C195.113 54.0133 166.86 54 138.606 54.04Z" fill="#A03581"/>
<path d="M297.166 53.6934C305.086 53.7734 312.993 53.4934 320.913 53.8668C320.593 149.68 320.86 245.507 320.78 341.333H44.1131C36.3664 339.667 28.8464 333.76 28.4864 325.307C28.2464 301.533 28.4464 277.747 28.3931 253.96C36.2597 249.24 44.1264 244.493 51.9797 239.76C133.713 239.733 215.446 239.84 297.18 239.707C297.153 177.707 297.18 115.693 297.166 53.6934ZM206.966 265.413C198.993 269.653 198.073 282.88 205.78 287.773C211.46 291.173 218.22 291.987 224.193 294.72C227.926 296.067 228.246 301.667 225.46 304.08C219.926 307.373 210.726 305.253 210.553 297.773C206.686 297.773 202.833 297.787 198.966 297.773C199.246 302.133 200.713 306.613 204.113 309.56C209.54 314.547 217.486 314.987 224.46 314.253C231.006 313.573 238.02 309.547 239.42 302.653C240.166 297.707 239.913 291.733 235.66 288.373C229.82 283.56 221.78 283.307 215.26 279.8C212.34 278.44 212.18 273.693 214.9 272.08C219.833 269.227 227.473 271.4 228.02 277.76C231.833 277.787 235.66 277.787 239.473 277.76C239.153 272.08 235.94 266.52 230.5 264.373C223.06 261.4 214.06 261.52 206.966 265.413ZM112.406 263.493C112.633 280.187 112.46 296.893 112.5 313.587C116.606 313.587 120.713 313.587 124.82 313.707C125.273 306.853 124.86 300 125.046 293.147C130.513 293.16 135.98 293.16 141.446 293.147C141.446 290.2 141.446 287.267 141.433 284.333C135.953 284.347 130.486 284.347 125.006 284.347C125.046 280.44 125.033 276.52 124.9 272.627C131.446 272.267 138.006 272.547 144.566 272.453C144.566 269.427 144.566 266.4 144.58 263.387C133.846 263.44 123.126 263.227 112.406 263.493ZM150.966 263.44C151.42 276.48 150.34 289.613 151.566 302.613C153.913 315.2 171.393 318.267 179.86 309.973C180.206 311.173 180.566 312.373 180.953 313.573C184.46 313.587 187.966 313.587 191.473 313.733C192.033 296.96 191.66 280.133 191.646 263.347C187.473 263.387 183.3 263.373 179.126 263.493C179.34 275.227 179.126 286.96 179.246 298.707C180.353 307.053 164.126 308.507 163.646 299.84C163.273 287.707 163.58 275.547 163.5 263.413C159.326 263.373 155.153 263.373 150.966 263.44Z" fill="#832C6A"/>
</svg>
