<svg width="72" height="72" viewBox="0 0 72 72" fill="none" xmlns="http://www.w3.org/2000/svg">
<g clip-path="url(#clip0_244_33)">
<mask id="path-1-inside-1_244_33" fill="white">
<path d="M70.5579 32.7535L39.1596 1.35758C38.7295 0.927192 38.2188 0.585774 37.6567 0.352835C37.0946 0.119895 36.4921 0 35.8836 0C35.2752 0 34.6727 0.119895 34.1105 0.352835C33.5484 0.585774 33.0377 0.927192 32.6076 1.35758L26.0901 7.87828L34.3591 16.1473C35.3313 15.8172 36.3764 15.7656 37.3764 15.9985C38.3763 16.2314 39.2911 16.7395 40.0174 17.4652C40.7476 18.1962 41.2574 19.118 41.4884 20.1252C41.7194 21.1323 41.6622 22.1841 41.3235 23.1603L49.296 31.1304C50.2724 30.7912 51.3246 30.7341 52.332 30.9655C53.3395 31.197 54.2613 31.7076 54.9918 32.4389C55.5035 32.9505 55.9094 33.5579 56.1864 34.2264C56.4633 34.895 56.6059 35.6115 56.6059 36.3351C56.6059 37.0587 56.4633 37.7752 56.1864 38.4438C55.9094 39.1123 55.5035 39.7197 54.9918 40.2313C53.9572 41.2648 52.5547 41.8453 51.0924 41.8453C49.6301 41.8453 48.2276 41.2648 47.1931 40.2313C46.4246 39.4615 45.901 38.4816 45.6882 37.4149C45.4754 36.3481 45.5829 35.2423 45.9973 34.2365L38.5625 26.8041V46.367C39.3472 46.7546 40.0283 47.3236 40.5493 48.0269C41.0704 48.7302 41.4164 49.5475 41.5586 50.4111C41.7009 51.2747 41.6354 52.1598 41.3675 52.9931C41.0996 53.8263 40.637 54.5837 40.0181 55.2026C39.5065 55.7144 38.8991 56.1203 38.2306 56.3972C37.5621 56.6742 36.8455 56.8167 36.1219 56.8167C35.3983 56.8167 34.6818 56.6742 34.0133 56.3972C33.3447 56.1203 32.7373 55.7144 32.2257 55.2026C31.7139 54.691 31.3078 54.0835 31.0308 53.4149C30.7538 52.7463 30.6112 52.0297 30.6112 51.306C30.6112 50.5823 30.7538 49.8657 31.0308 49.1971C31.3078 48.5285 31.7139 47.921 32.2257 47.4094C32.7413 46.8928 33.3541 46.4834 34.0288 46.205V26.4621C33.3569 26.1853 32.7463 25.7785 32.232 25.2651C31.7178 24.7516 31.31 24.1416 31.0322 23.4701C30.7544 22.7986 30.6121 22.0788 30.6133 21.3521C30.6145 20.6254 30.7592 19.9061 31.0393 19.2355L22.8861 11.0807L1.35492 32.6064C0.487288 33.4757 0 34.6538 0 35.882C0 37.1102 0.487288 38.2882 1.35492 39.1576L32.7547 70.5574C33.6241 71.4248 34.8019 71.9119 36.03 71.9119C37.258 71.9119 38.4359 71.4248 39.3052 70.5574L70.5579 39.3047C71.4255 38.4354 71.9128 37.2573 71.9128 36.0291C71.9128 34.8009 71.4255 33.6228 70.5579 32.7535Z"/>
</mask>
<path d="M70.5579 32.7535L39.1596 1.35758C38.7295 0.927192 38.2188 0.585774 37.6567 0.352835C37.0946 0.119895 36.4921 0 35.8836 0C35.2752 0 34.6727 0.119895 34.1105 0.352835C33.5484 0.585774 33.0377 0.927192 32.6076 1.35758L26.0901 7.87828L34.3591 16.1473C35.3313 15.8172 36.3764 15.7656 37.3764 15.9985C38.3763 16.2314 39.2911 16.7395 40.0174 17.4652C40.7476 18.1962 41.2574 19.118 41.4884 20.1252C41.7194 21.1323 41.6622 22.1841 41.3235 23.1603L49.296 31.1304C50.2724 30.7912 51.3246 30.7341 52.332 30.9655C53.3395 31.197 54.2613 31.7076 54.9918 32.4389C55.5035 32.9505 55.9094 33.5579 56.1864 34.2264C56.4633 34.895 56.6059 35.6115 56.6059 36.3351C56.6059 37.0587 56.4633 37.7752 56.1864 38.4438C55.9094 39.1123 55.5035 39.7197 54.9918 40.2313C53.9572 41.2648 52.5547 41.8453 51.0924 41.8453C49.6301 41.8453 48.2276 41.2648 47.1931 40.2313C46.4246 39.4615 45.901 38.4816 45.6882 37.4149C45.4754 36.3481 45.5829 35.2423 45.9973 34.2365L38.5625 26.8041V46.367C39.3472 46.7546 40.0283 47.3236 40.5493 48.0269C41.0704 48.7302 41.4164 49.5475 41.5586 50.4111C41.7009 51.2747 41.6354 52.1598 41.3675 52.9931C41.0996 53.8263 40.637 54.5837 40.0181 55.2026C39.5065 55.7144 38.8991 56.1203 38.2306 56.3972C37.5621 56.6742 36.8455 56.8167 36.1219 56.8167C35.3983 56.8167 34.6818 56.6742 34.0133 56.3972C33.3447 56.1203 32.7373 55.7144 32.2257 55.2026C31.7139 54.691 31.3078 54.0835 31.0308 53.4149C30.7538 52.7463 30.6112 52.0297 30.6112 51.306C30.6112 50.5823 30.7538 49.8657 31.0308 49.1971C31.3078 48.5285 31.7139 47.921 32.2257 47.4094C32.7413 46.8928 33.3541 46.4834 34.0288 46.205V26.4621C33.3569 26.1853 32.7463 25.7785 32.232 25.2651C31.7178 24.7516 31.31 24.1416 31.0322 23.4701C30.7544 22.7986 30.6121 22.0788 30.6133 21.3521C30.6145 20.6254 30.7592 19.9061 31.0393 19.2355L22.8861 11.0807L1.35492 32.6064C0.487288 33.4757 0 34.6538 0 35.882C0 37.1102 0.487288 38.2882 1.35492 39.1576L32.7547 70.5574C33.6241 71.4248 34.8019 71.9119 36.03 71.9119C37.258 71.9119 38.4359 71.4248 39.3052 70.5574L70.5579 39.3047C71.4255 38.4354 71.9128 37.2573 71.9128 36.0291C71.9128 34.8009 71.4255 33.6228 70.5579 32.7535Z" fill="#A03581" stroke="#1C1B1F" stroke-width="2" mask="url(#path-1-inside-1_244_33)"/>
<mask id="mask0_244_33" style="mask-type:luminance" maskUnits="userSpaceOnUse" x="-20" y="-21" width="107" height="107">
<path d="M-20 -20.7909L85.8001 -21.0001L86.0092 84.8L-19.7908 85.0092L-20 -20.7909Z" fill="white"/>
</mask>
<g mask="url(#mask0_244_33)">
</g>
</g>
<defs>
<clipPath id="clip0_244_33">
<rect width="72" height="72" fill="white"/>
</clipPath>
</defs>
</svg>
