<svg width="87" height="87" viewBox="0 0 87 87" fill="none" xmlns="http://www.w3.org/2000/svg">
<mask id="path-1-outside-1_244_3" maskUnits="userSpaceOnUse" x="0" y="0" width="87" height="87" fill="black">
<rect fill="white" width="87" height="87"/>
<path d="M85.418 42.4586L81.8507 40.2486C81.8207 39.9021 81.787 39.5559 81.7497 39.2101L84.815 36.3493C84.9696 36.2075 85.0851 36.0283 85.1503 35.829C85.2155 35.6296 85.2284 35.4168 85.1875 35.2111C85.1467 35.0054 85.0536 34.8136 84.9172 34.6543C84.7808 34.4949 84.6056 34.3734 84.4086 34.3014L80.488 32.8351C80.3902 32.4966 80.2884 32.1592 80.1826 31.8231L82.6263 28.4258C82.7491 28.2562 82.8265 28.058 82.8511 27.8501C82.8757 27.6422 82.8467 27.4314 82.7668 27.2379C82.6869 27.0443 82.5589 26.8744 82.3948 26.7444C82.2307 26.6143 82.0361 26.5283 81.8294 26.4947L77.6937 25.8227C77.5343 25.5093 77.367 25.2011 77.197 24.893L78.9341 21.0813C79.0229 20.891 79.0611 20.6811 79.0451 20.4717C79.0291 20.2623 78.9594 20.0606 78.8427 19.886C78.7261 19.7114 78.5664 19.5699 78.3791 19.4749C78.1917 19.38 77.9831 19.335 77.7734 19.3442L73.5792 19.4903C73.362 19.2194 73.1407 18.952 72.9151 18.6881L73.8793 14.6002C73.9283 14.3964 73.9242 14.1834 73.8673 13.9817C73.8105 13.78 73.7028 13.5962 73.5546 13.448C73.4064 13.2998 73.2226 13.1921 73.0209 13.1353C72.8192 13.0784 72.6062 13.0743 72.4025 13.1233L68.3172 14.0849C68.0515 13.8617 67.7859 13.6413 67.5123 13.4208L67.6584 9.22927C67.6676 9.01949 67.6226 8.81088 67.5277 8.62357C67.4327 8.43626 67.2912 8.27657 67.1166 8.15991C66.942 8.04325 66.7403 7.97355 66.5309 7.95754C66.3215 7.94153 66.1116 7.97974 65.9213 8.0685L62.1096 9.80568C61.8017 9.63554 61.4917 9.46908 61.1799 9.30631L60.5079 5.17322C60.4744 4.96677 60.3887 4.7723 60.259 4.60826C60.1292 4.44423 59.9597 4.31608 59.7665 4.23598C59.5733 4.15588 59.3628 4.12649 59.1551 4.15059C58.9473 4.17469 58.7492 4.25149 58.5794 4.3737L55.1794 6.81743C54.8444 6.71094 54.5079 6.60911 54.1701 6.51196L52.7038 2.59138C52.6315 2.3947 52.5099 2.21988 52.3507 2.08364C52.1915 1.9474 51.9999 1.8543 51.7944 1.81326C51.5889 1.77221 51.3763 1.78459 51.177 1.84921C50.9776 1.91383 50.7982 2.02852 50.6559 2.18231L47.7951 5.25291C47.4498 5.21572 47.1045 5.17853 46.7565 5.15197L44.5466 1.58201C44.4366 1.40407 44.283 1.25719 44.1003 1.15533C43.9175 1.05347 43.7118 1 43.5027 1C43.2935 1 43.0878 1.05347 42.9051 1.15533C42.7224 1.25719 42.5687 1.40407 42.4588 1.58201L40.2488 5.15197C39.9035 5.17853 39.5555 5.21572 39.2102 5.25291L36.3494 2.18497C36.2062 2.03321 36.0269 1.92028 35.8281 1.85678C35.6294 1.79327 35.4177 1.78126 35.2131 1.82187C35.0084 1.86248 34.8174 1.95439 34.658 2.08898C34.4985 2.22357 34.3759 2.39644 34.3015 2.59138L32.8352 6.51196C32.4952 6.61024 32.1579 6.71383 31.8259 6.82008L28.4259 4.3737C28.2567 4.24935 28.0584 4.17069 27.85 4.14529C27.6416 4.11989 27.4302 4.14862 27.2361 4.22871C27.042 4.30879 26.8719 4.43752 26.742 4.6025C26.6122 4.76747 26.527 4.96311 26.4948 5.17057L25.8201 9.30631C25.5093 9.46834 25.2012 9.63568 24.8904 9.80568L21.0814 8.0685C20.8913 7.97987 20.6816 7.94166 20.4725 7.95755C20.2633 7.97344 20.0618 8.0429 19.8873 8.15925C19.7128 8.27559 19.5711 8.4349 19.476 8.62184C19.3809 8.80878 19.3355 9.01706 19.3442 9.22662L19.4903 13.4235C19.2194 13.6413 18.9511 13.8617 18.6855 14.0875L14.6002 13.1233C14.3965 13.0761 14.1842 13.0814 13.9832 13.1389C13.7822 13.1963 13.5991 13.304 13.4511 13.4517C13.3031 13.5993 13.1952 13.7823 13.1374 13.9832C13.0796 14.1841 13.0738 14.3964 13.1207 14.6002L14.0849 18.6881C13.8591 18.9537 13.6386 19.2193 13.4208 19.4903L9.22665 19.3442C9.01736 19.3365 8.8096 19.3825 8.62313 19.4778C8.43665 19.5731 8.27768 19.7146 8.16133 19.8887C8.04498 20.0629 7.97512 20.2639 7.95841 20.4726C7.94171 20.6814 7.9787 20.8909 8.06587 21.0813L9.80305 24.8957C9.6357 25.2011 9.46837 25.5093 9.30633 25.8254L5.17323 26.4947C4.96634 26.528 4.77141 26.6136 4.60701 26.7435C4.4426 26.8735 4.3142 27.0433 4.23404 27.2369C4.15388 27.4305 4.12464 27.6414 4.14908 27.8495C4.17353 28.0577 4.25087 28.256 4.37371 28.4258L6.81745 31.8231C6.7112 32.1578 6.61026 32.4951 6.51198 32.8325L2.59138 34.3014C2.39542 34.3746 2.22143 34.4967 2.08594 34.6561C1.95044 34.8155 1.85795 35.0068 1.81723 35.212C1.77651 35.4172 1.78892 35.6294 1.85328 35.8285C1.91765 36.0275 2.03182 36.2068 2.18497 36.3493L5.25292 39.2101C5.21308 39.5554 5.17855 39.9007 5.14933 40.2486L1.58201 42.4586C1.40407 42.5686 1.2572 42.7222 1.15533 42.9049C1.05347 43.0876 1 43.2933 1 43.5025C1 43.7117 1.05347 43.9174 1.15533 44.1001C1.2572 44.2828 1.40407 44.4364 1.58201 44.5464L5.14933 46.7537C5.17855 47.1017 5.21308 47.4497 5.25292 47.795L2.18497 50.6557C2.03182 50.7982 1.91765 50.9775 1.85328 51.1766C1.78892 51.3756 1.77651 51.5878 1.81723 51.793C1.85795 51.9982 1.95044 52.1896 2.08594 52.349C2.22143 52.5083 2.39542 52.6305 2.59138 52.7037L6.51198 54.1699C6.61026 54.5099 6.71385 54.8472 6.8201 55.1793L4.37371 58.5792C4.2515 58.749 4.1747 58.9471 4.1506 59.1549C4.1265 59.3626 4.15589 59.5731 4.23599 59.7663C4.31609 59.9595 4.44424 60.129 4.60827 60.2588C4.77231 60.3885 4.96678 60.4742 5.17323 60.5077L9.30633 61.1797C9.46837 61.4931 9.63305 61.8039 9.80571 62.1094L8.06587 65.921C7.9787 66.1115 7.94171 66.321 7.95841 66.5298C7.97512 66.7385 8.04498 66.9395 8.16133 67.1137C8.27768 67.2878 8.43665 67.4292 8.62313 67.5246C8.8096 67.6199 9.01736 67.6659 9.22665 67.6582L13.4208 67.5121C13.6386 67.7857 13.8591 68.0513 14.0849 68.317L13.1207 72.4049C13.0713 72.6088 13.0752 72.8221 13.1321 73.0241C13.1891 73.2261 13.2971 73.41 13.4457 73.5582C13.5944 73.7063 13.7787 73.8136 13.9809 73.8699C14.1831 73.9261 14.3964 73.9292 14.6002 73.8791L18.6855 72.9175C18.9511 73.1433 19.2194 73.3611 19.4903 73.5789L19.3442 77.7758C19.3363 77.9851 19.3822 78.1929 19.4775 78.3794C19.5728 78.566 19.7143 78.7249 19.8886 78.8411C20.0629 78.9573 20.2641 79.0268 20.4729 79.0431C20.6817 79.0593 20.8913 79.0217 21.0814 78.9339L24.8931 77.1967C25.1986 77.3667 25.5093 77.5341 25.8228 77.6961L26.4948 81.8265C26.527 82.034 26.612 82.2298 26.7416 82.395C26.8713 82.5601 27.0412 82.6892 27.2351 82.7698C27.429 82.8503 27.6404 82.8797 27.849 82.855C28.0575 82.8302 28.2562 82.7523 28.4259 82.6287L31.8232 80.1796C32.1579 80.2859 32.4952 80.3921 32.8326 80.4878L34.2988 84.4084C34.3708 84.6054 34.4924 84.7805 34.6517 84.9169C34.811 85.0533 35.0028 85.1464 35.2086 85.1873C35.4143 85.2281 35.6271 85.2153 35.8264 85.15C36.0258 85.0848 36.205 84.9693 36.3468 84.8148L39.2102 81.7468C39.5555 81.7867 39.9008 81.8212 40.2488 81.8531L42.4588 85.4204C42.5692 85.5977 42.723 85.744 42.9056 85.8454C43.0883 85.9468 43.2937 86 43.5027 86C43.7116 86 43.917 85.9468 44.0997 85.8454C44.2823 85.744 44.4361 85.5977 44.5466 85.4204L46.7539 81.8504C47.1018 81.8212 47.4498 81.7867 47.7951 81.7468L50.6559 84.8148C50.7978 84.9687 50.9768 85.0836 51.1758 85.1484C51.3748 85.2133 51.5872 85.2259 51.7925 85.1851C51.9978 85.1443 52.1892 85.0515 52.3483 84.9155C52.5075 84.7794 52.629 84.6048 52.7012 84.4084L54.1701 80.4878C54.5074 80.3921 54.8448 80.2859 55.1794 80.1796L58.5794 82.6287C58.7495 82.7502 58.9478 82.8263 59.1555 82.8499C59.3632 82.8734 59.5735 82.8437 59.7665 82.7634C59.9595 82.6831 60.1289 82.5549 60.2586 82.391C60.3883 82.2271 60.4741 82.0328 60.5079 81.8265L61.1825 77.6934C61.4933 77.5341 61.8014 77.3641 62.1096 77.1967L65.9213 78.9339C66.1116 79.0218 66.3214 79.0594 66.5304 79.0431C66.7395 79.0267 66.9409 78.9569 67.1152 78.8404C67.2896 78.7239 67.4311 78.5646 67.5262 78.3777C67.6213 78.1908 67.6669 77.9826 67.6584 77.7731L67.5123 73.5763C67.7833 73.3638 68.0515 73.1433 68.3172 72.9175L72.4025 73.8791C72.6061 73.9287 72.819 73.9251 73.0208 73.8686C73.2226 73.8122 73.4065 73.7048 73.5549 73.5567C73.7032 73.4087 73.8109 73.2249 73.8678 73.0232C73.9246 72.8215 73.9286 72.6086 73.8793 72.4049L72.9178 68.317C73.1409 68.0513 73.3614 67.7857 73.5792 67.5121L77.776 67.6582C77.9856 67.6669 78.1939 67.6215 78.3808 67.5264C78.5677 67.4313 78.727 67.2897 78.8434 67.1152C78.9597 66.9407 79.0292 66.7391 79.0451 66.53C79.061 66.3208 79.0228 66.1111 78.9341 65.921L77.197 62.1094C77.367 61.8039 77.5316 61.4931 77.6937 61.1797L81.8268 60.5077C82.034 60.4756 82.2295 60.3907 82.3944 60.2612C82.5594 60.1316 82.6882 59.9619 82.7685 59.7681C82.8488 59.5744 82.8779 59.3633 82.853 59.1551C82.8281 58.9469 82.75 58.7485 82.6263 58.5792L80.1826 55.1793C80.2882 54.844 80.39 54.5075 80.488 54.1699L84.4086 52.7037C84.6056 52.6316 84.7808 52.5101 84.9172 52.3508C85.0536 52.1915 85.1467 51.9997 85.1875 51.7939C85.2284 51.5882 85.2155 51.3754 85.1503 51.1761C85.0851 50.9767 84.9696 50.7975 84.815 50.6557L81.7471 47.795C81.7843 47.4497 81.8188 47.1017 81.8507 46.7537L85.418 44.5464C85.5959 44.4364 85.7428 44.2828 85.8447 44.1001C85.9465 43.9174 86 43.7117 86 43.5025C86 43.2933 85.9465 43.0876 85.8447 42.9049C85.7428 42.7222 85.5959 42.5686 85.418 42.4586ZM61.5358 72.0596C60.8957 71.904 60.3416 71.5047 59.9914 70.9468C59.6412 70.3889 59.5225 69.7164 59.6606 69.0723C59.7987 68.4282 60.1827 67.8634 60.7308 67.4981C61.279 67.1328 61.948 66.9959 62.5956 67.1163C63.2382 67.2699 63.7951 67.6688 64.1473 68.2278C64.4995 68.7867 64.619 69.4613 64.4802 70.1072C64.3413 70.7531 63.9552 71.319 63.4045 71.6839C62.8537 72.0488 62.1847 72.1836 61.5358 72.0596ZM60.3219 63.8598C60.0265 63.7966 59.7215 63.7923 59.4243 63.847C59.1272 63.9017 58.8437 64.0144 58.5902 64.1787C58.3366 64.343 58.1179 64.5556 57.9465 64.8044C57.7751 65.0532 57.6544 65.3334 57.5913 65.6289L56.3243 71.5416C52.2961 73.3684 47.9231 74.3104 43.5 74.3041C38.825 74.3041 34.3891 73.2682 30.4074 71.4168L29.1404 65.5067C29.0776 65.211 28.9571 64.9305 28.7859 64.6814C28.6146 64.4323 28.3959 64.2194 28.1423 64.0548C27.8887 63.8903 27.6052 63.7773 27.3079 63.7225C27.0106 63.6676 26.7054 63.6718 26.4098 63.735L21.1903 64.8559C20.2204 63.8578 19.3188 62.7956 18.4916 61.6764H43.8878C44.1747 61.6764 44.3659 61.6233 44.3659 61.363V52.3796C44.3659 52.1166 44.1747 52.0662 43.8878 52.0662H36.461V46.3686H44.4934C45.2266 46.3686 48.414 46.5784 49.434 50.6531C49.7528 51.9042 50.454 55.9815 50.9321 57.2857C51.4103 58.7492 53.3546 61.6737 55.4265 61.6737H68.0808C68.235 61.6724 68.3888 61.6573 68.5403 61.6286C67.6637 62.8212 66.6995 63.9501 65.6636 65.002L60.3246 63.8572L60.3219 63.8598ZM25.1986 71.9347C24.551 72.0552 23.8819 71.9182 23.3337 71.5529C22.7856 71.1876 22.4016 70.6229 22.2635 69.9788C22.1254 69.3347 22.2441 68.6621 22.5943 68.1042C22.9445 67.5463 23.4986 67.1471 24.1387 66.9915C24.4635 66.9221 24.7987 66.9173 25.1253 66.9775C25.4519 67.0376 25.7635 67.1615 26.0422 67.342C26.3209 67.5226 26.5613 67.7563 26.7497 68.0297C26.9382 68.3032 27.0709 68.6111 27.1403 68.9359C27.2097 69.2606 27.2145 69.5958 27.1543 69.9224C27.0942 70.249 26.9703 70.5606 26.7897 70.8393C26.6092 71.118 26.3755 71.3585 26.102 71.5469C25.8286 71.7353 25.5207 71.868 25.1959 71.9374L25.1986 71.9347ZM15.5644 32.8697C15.6989 33.1726 15.7724 33.4991 15.7807 33.8304C15.789 34.1618 15.7319 34.4915 15.6128 34.8008C15.4937 35.1101 15.3148 35.3929 15.0863 35.6331C14.8579 35.8733 14.5844 36.0661 14.2815 36.2006C13.9785 36.335 13.652 36.4085 13.3207 36.4168C12.9893 36.4251 12.6596 36.3681 12.3503 36.2489C12.041 36.1298 11.7582 35.9509 11.518 35.7225C11.2778 35.4941 11.085 35.2206 10.9505 34.9176C10.679 34.3058 10.6616 33.6111 10.9022 32.9864C11.1428 32.3618 11.6217 31.8583 12.2335 31.5867C12.8453 31.3151 13.54 31.2977 14.1647 31.5383C14.7893 31.7789 15.2928 32.2578 15.5644 32.8697ZM12.6027 39.8901L18.04 37.4729C18.598 37.2242 19.0345 36.7643 19.2536 36.194C19.4728 35.6238 19.4566 34.9899 19.2088 34.4315L18.0905 31.9001H22.4945V51.7527H13.6094C12.5125 47.9003 12.1725 43.8724 12.6027 39.8901ZM36.4636 37.9616V32.11H46.9504C47.4923 32.11 50.7754 32.7368 50.7754 35.1912C50.7754 37.2285 48.2573 37.9616 46.1855 37.9616H36.4636ZM74.5779 43.2289C74.5779 44.0045 74.5487 44.7722 74.4903 45.5345H71.3028C70.984 45.5345 70.8565 45.747 70.8565 46.0578V47.5214C70.8565 50.9692 68.9122 51.7182 67.2095 51.9095C65.5892 52.0901 63.7883 51.2295 63.5678 50.236C62.6116 44.8572 61.0178 43.7071 58.4997 41.7202C61.6235 39.7387 64.8747 36.8115 64.8747 32.8936C64.8747 28.6622 61.9741 25.998 59.9979 24.6912C57.2247 22.8637 54.1541 22.4971 53.3254 22.4971H20.3509C24.9072 17.4011 31.0185 13.9518 37.736 12.685L41.622 16.7623C42.5013 17.6814 43.9595 17.7186 44.8759 16.8367L49.2268 12.6771C53.6592 13.5093 57.8576 15.2954 61.531 17.9116C65.2044 20.5278 68.265 23.9115 70.5006 27.8282L67.523 34.5537C67.2758 35.1121 67.2601 35.7458 67.4791 36.3158C67.6982 36.8858 68.1342 37.3458 68.6917 37.5951L74.4265 40.1397C74.5248 41.1571 74.5779 42.185 74.5779 43.2289ZM41.6247 9.216C41.8644 8.9868 42.147 8.80711 42.4562 8.68719C42.7654 8.56727 43.0952 8.50949 43.4268 8.51714C43.7583 8.52479 44.0851 8.59771 44.3885 8.73176C44.6918 8.8658 44.9658 9.05834 45.1947 9.29834C45.4239 9.53867 45.6035 9.82179 45.7232 10.1315C45.843 10.4413 45.9006 10.7716 45.8927 11.1036C45.8848 11.4356 45.8116 11.7628 45.6772 12.0665C45.5429 12.3702 45.35 12.6444 45.1097 12.8736C44.87 13.1026 44.5876 13.282 44.2785 13.4016C43.9694 13.5213 43.6397 13.5788 43.3084 13.5709C42.977 13.563 42.6505 13.4899 42.3475 13.3556C42.0444 13.2214 41.7708 13.0287 41.5424 12.7886C41.0806 12.3034 40.83 11.6549 40.8455 10.9853C40.8609 10.3157 41.1411 9.67944 41.6247 9.216ZM71.17 32.9918C71.4419 32.38 71.9457 31.9013 72.5707 31.6609C73.1956 31.4206 73.8904 31.4383 74.5022 31.7102C75.114 31.9821 75.5928 32.486 75.8332 33.1109C76.0735 33.7358 76.0558 34.4306 75.7838 35.0425C75.6492 35.3454 75.4562 35.6189 75.2159 35.8472C74.9755 36.0756 74.6926 36.2544 74.3832 36.3734C74.0737 36.4924 73.7439 36.5493 73.4125 36.5408C73.0811 36.5324 72.7546 36.4587 72.4516 36.3241C72.1487 36.1894 71.8752 35.9964 71.6468 35.7561C71.4185 35.5158 71.2397 35.2328 71.1206 34.9234C71.0016 34.614 70.9447 34.2841 70.9532 33.9527C70.9617 33.6213 71.0353 33.2948 71.17 32.9918Z"/>
</mask>
<path d="M85.418 42.4586L81.8507 40.2486C81.8207 39.9021 81.787 39.5559 81.7497 39.2101L84.815 36.3493C84.9696 36.2075 85.0851 36.0283 85.1503 35.829C85.2155 35.6296 85.2284 35.4168 85.1875 35.2111C85.1467 35.0054 85.0536 34.8136 84.9172 34.6543C84.7808 34.4949 84.6056 34.3734 84.4086 34.3014L80.488 32.8351C80.3902 32.4966 80.2884 32.1592 80.1826 31.8231L82.6263 28.4258C82.7491 28.2562 82.8265 28.058 82.8511 27.8501C82.8757 27.6422 82.8467 27.4314 82.7668 27.2379C82.6869 27.0443 82.5589 26.8744 82.3948 26.7444C82.2307 26.6143 82.0361 26.5283 81.8294 26.4947L77.6937 25.8227C77.5343 25.5093 77.367 25.2011 77.197 24.893L78.9341 21.0813C79.0229 20.891 79.0611 20.6811 79.0451 20.4717C79.0291 20.2623 78.9594 20.0606 78.8427 19.886C78.7261 19.7114 78.5664 19.5699 78.3791 19.4749C78.1917 19.38 77.9831 19.335 77.7734 19.3442L73.5792 19.4903C73.362 19.2194 73.1407 18.952 72.9151 18.6881L73.8793 14.6002C73.9283 14.3964 73.9242 14.1834 73.8673 13.9817C73.8105 13.78 73.7028 13.5962 73.5546 13.448C73.4064 13.2998 73.2226 13.1921 73.0209 13.1353C72.8192 13.0784 72.6062 13.0743 72.4025 13.1233L68.3172 14.0849C68.0515 13.8617 67.7859 13.6413 67.5123 13.4208L67.6584 9.22927C67.6676 9.01949 67.6226 8.81088 67.5277 8.62357C67.4327 8.43626 67.2912 8.27657 67.1166 8.15991C66.942 8.04325 66.7403 7.97355 66.5309 7.95754C66.3215 7.94153 66.1116 7.97974 65.9213 8.0685L62.1096 9.80568C61.8017 9.63554 61.4917 9.46908 61.1799 9.30631L60.5079 5.17322C60.4744 4.96677 60.3887 4.7723 60.259 4.60826C60.1292 4.44423 59.9597 4.31608 59.7665 4.23598C59.5733 4.15588 59.3628 4.12649 59.1551 4.15059C58.9473 4.17469 58.7492 4.25149 58.5794 4.3737L55.1794 6.81743C54.8444 6.71094 54.5079 6.60911 54.1701 6.51196L52.7038 2.59138C52.6315 2.3947 52.5099 2.21988 52.3507 2.08364C52.1915 1.9474 51.9999 1.8543 51.7944 1.81326C51.5889 1.77221 51.3763 1.78459 51.177 1.84921C50.9776 1.91383 50.7982 2.02852 50.6559 2.18231L47.7951 5.25291C47.4498 5.21572 47.1045 5.17853 46.7565 5.15197L44.5466 1.58201C44.4366 1.40407 44.283 1.25719 44.1003 1.15533C43.9175 1.05347 43.7118 1 43.5027 1C43.2935 1 43.0878 1.05347 42.9051 1.15533C42.7224 1.25719 42.5687 1.40407 42.4588 1.58201L40.2488 5.15197C39.9035 5.17853 39.5555 5.21572 39.2102 5.25291L36.3494 2.18497C36.2062 2.03321 36.0269 1.92028 35.8281 1.85678C35.6294 1.79327 35.4177 1.78126 35.2131 1.82187C35.0084 1.86248 34.8174 1.95439 34.658 2.08898C34.4985 2.22357 34.3759 2.39644 34.3015 2.59138L32.8352 6.51196C32.4952 6.61024 32.1579 6.71383 31.8259 6.82008L28.4259 4.3737C28.2567 4.24935 28.0584 4.17069 27.85 4.14529C27.6416 4.11989 27.4302 4.14862 27.2361 4.22871C27.042 4.30879 26.8719 4.43752 26.742 4.6025C26.6122 4.76747 26.527 4.96311 26.4948 5.17057L25.8201 9.30631C25.5093 9.46834 25.2012 9.63568 24.8904 9.80568L21.0814 8.0685C20.8913 7.97987 20.6816 7.94166 20.4725 7.95755C20.2633 7.97344 20.0618 8.0429 19.8873 8.15925C19.7128 8.27559 19.5711 8.4349 19.476 8.62184C19.3809 8.80878 19.3355 9.01706 19.3442 9.22662L19.4903 13.4235C19.2194 13.6413 18.9511 13.8617 18.6855 14.0875L14.6002 13.1233C14.3965 13.0761 14.1842 13.0814 13.9832 13.1389C13.7822 13.1963 13.5991 13.304 13.4511 13.4517C13.3031 13.5993 13.1952 13.7823 13.1374 13.9832C13.0796 14.1841 13.0738 14.3964 13.1207 14.6002L14.0849 18.6881C13.8591 18.9537 13.6386 19.2193 13.4208 19.4903L9.22665 19.3442C9.01736 19.3365 8.8096 19.3825 8.62313 19.4778C8.43665 19.5731 8.27768 19.7146 8.16133 19.8887C8.04498 20.0629 7.97512 20.2639 7.95841 20.4726C7.94171 20.6814 7.9787 20.8909 8.06587 21.0813L9.80305 24.8957C9.6357 25.2011 9.46837 25.5093 9.30633 25.8254L5.17323 26.4947C4.96634 26.528 4.77141 26.6136 4.60701 26.7435C4.4426 26.8735 4.3142 27.0433 4.23404 27.2369C4.15388 27.4305 4.12464 27.6414 4.14908 27.8495C4.17353 28.0577 4.25087 28.256 4.37371 28.4258L6.81745 31.8231C6.7112 32.1578 6.61026 32.4951 6.51198 32.8325L2.59138 34.3014C2.39542 34.3746 2.22143 34.4967 2.08594 34.6561C1.95044 34.8155 1.85795 35.0068 1.81723 35.212C1.77651 35.4172 1.78892 35.6294 1.85328 35.8285C1.91765 36.0275 2.03182 36.2068 2.18497 36.3493L5.25292 39.2101C5.21308 39.5554 5.17855 39.9007 5.14933 40.2486L1.58201 42.4586C1.40407 42.5686 1.2572 42.7222 1.15533 42.9049C1.05347 43.0876 1 43.2933 1 43.5025C1 43.7117 1.05347 43.9174 1.15533 44.1001C1.2572 44.2828 1.40407 44.4364 1.58201 44.5464L5.14933 46.7537C5.17855 47.1017 5.21308 47.4497 5.25292 47.795L2.18497 50.6557C2.03182 50.7982 1.91765 50.9775 1.85328 51.1766C1.78892 51.3756 1.77651 51.5878 1.81723 51.793C1.85795 51.9982 1.95044 52.1896 2.08594 52.349C2.22143 52.5083 2.39542 52.6305 2.59138 52.7037L6.51198 54.1699C6.61026 54.5099 6.71385 54.8472 6.8201 55.1793L4.37371 58.5792C4.2515 58.749 4.1747 58.9471 4.1506 59.1549C4.1265 59.3626 4.15589 59.5731 4.23599 59.7663C4.31609 59.9595 4.44424 60.129 4.60827 60.2588C4.77231 60.3885 4.96678 60.4742 5.17323 60.5077L9.30633 61.1797C9.46837 61.4931 9.63305 61.8039 9.80571 62.1094L8.06587 65.921C7.9787 66.1115 7.94171 66.321 7.95841 66.5298C7.97512 66.7385 8.04498 66.9395 8.16133 67.1137C8.27768 67.2878 8.43665 67.4292 8.62313 67.5246C8.8096 67.6199 9.01736 67.6659 9.22665 67.6582L13.4208 67.5121C13.6386 67.7857 13.8591 68.0513 14.0849 68.317L13.1207 72.4049C13.0713 72.6088 13.0752 72.8221 13.1321 73.0241C13.1891 73.2261 13.2971 73.41 13.4457 73.5582C13.5944 73.7063 13.7787 73.8136 13.9809 73.8699C14.1831 73.9261 14.3964 73.9292 14.6002 73.8791L18.6855 72.9175C18.9511 73.1433 19.2194 73.3611 19.4903 73.5789L19.3442 77.7758C19.3363 77.9851 19.3822 78.1929 19.4775 78.3794C19.5728 78.566 19.7143 78.7249 19.8886 78.8411C20.0629 78.9573 20.2641 79.0268 20.4729 79.0431C20.6817 79.0593 20.8913 79.0217 21.0814 78.9339L24.8931 77.1967C25.1986 77.3667 25.5093 77.5341 25.8228 77.6961L26.4948 81.8265C26.527 82.034 26.612 82.2298 26.7416 82.395C26.8713 82.5601 27.0412 82.6892 27.2351 82.7698C27.429 82.8503 27.6404 82.8797 27.849 82.855C28.0575 82.8302 28.2562 82.7523 28.4259 82.6287L31.8232 80.1796C32.1579 80.2859 32.4952 80.3921 32.8326 80.4878L34.2988 84.4084C34.3708 84.6054 34.4924 84.7805 34.6517 84.9169C34.811 85.0533 35.0028 85.1464 35.2086 85.1873C35.4143 85.2281 35.6271 85.2153 35.8264 85.15C36.0258 85.0848 36.205 84.9693 36.3468 84.8148L39.2102 81.7468C39.5555 81.7867 39.9008 81.8212 40.2488 81.8531L42.4588 85.4204C42.5692 85.5977 42.723 85.744 42.9056 85.8454C43.0883 85.9468 43.2937 86 43.5027 86C43.7116 86 43.917 85.9468 44.0997 85.8454C44.2823 85.744 44.4361 85.5977 44.5466 85.4204L46.7539 81.8504C47.1018 81.8212 47.4498 81.7867 47.7951 81.7468L50.6559 84.8148C50.7978 84.9687 50.9768 85.0836 51.1758 85.1484C51.3748 85.2133 51.5872 85.2259 51.7925 85.1851C51.9978 85.1443 52.1892 85.0515 52.3483 84.9155C52.5075 84.7794 52.629 84.6048 52.7012 84.4084L54.1701 80.4878C54.5074 80.3921 54.8448 80.2859 55.1794 80.1796L58.5794 82.6287C58.7495 82.7502 58.9478 82.8263 59.1555 82.8499C59.3632 82.8734 59.5735 82.8437 59.7665 82.7634C59.9595 82.6831 60.1289 82.5549 60.2586 82.391C60.3883 82.2271 60.4741 82.0328 60.5079 81.8265L61.1825 77.6934C61.4933 77.5341 61.8014 77.3641 62.1096 77.1967L65.9213 78.9339C66.1116 79.0218 66.3214 79.0594 66.5304 79.0431C66.7395 79.0267 66.9409 78.9569 67.1152 78.8404C67.2896 78.7239 67.4311 78.5646 67.5262 78.3777C67.6213 78.1908 67.6669 77.9826 67.6584 77.7731L67.5123 73.5763C67.7833 73.3638 68.0515 73.1433 68.3172 72.9175L72.4025 73.8791C72.6061 73.9287 72.819 73.9251 73.0208 73.8686C73.2226 73.8122 73.4065 73.7048 73.5549 73.5567C73.7032 73.4087 73.8109 73.2249 73.8678 73.0232C73.9246 72.8215 73.9286 72.6086 73.8793 72.4049L72.9178 68.317C73.1409 68.0513 73.3614 67.7857 73.5792 67.5121L77.776 67.6582C77.9856 67.6669 78.1939 67.6215 78.3808 67.5264C78.5677 67.4313 78.727 67.2897 78.8434 67.1152C78.9597 66.9407 79.0292 66.7391 79.0451 66.53C79.061 66.3208 79.0228 66.1111 78.9341 65.921L77.197 62.1094C77.367 61.8039 77.5316 61.4931 77.6937 61.1797L81.8268 60.5077C82.034 60.4756 82.2295 60.3907 82.3944 60.2612C82.5594 60.1316 82.6882 59.9619 82.7685 59.7681C82.8488 59.5744 82.8779 59.3633 82.853 59.1551C82.8281 58.9469 82.75 58.7485 82.6263 58.5792L80.1826 55.1793C80.2882 54.844 80.39 54.5075 80.488 54.1699L84.4086 52.7037C84.6056 52.6316 84.7808 52.5101 84.9172 52.3508C85.0536 52.1915 85.1467 51.9997 85.1875 51.7939C85.2284 51.5882 85.2155 51.3754 85.1503 51.1761C85.0851 50.9767 84.9696 50.7975 84.815 50.6557L81.7471 47.795C81.7843 47.4497 81.8188 47.1017 81.8507 46.7537L85.418 44.5464C85.5959 44.4364 85.7428 44.2828 85.8447 44.1001C85.9465 43.9174 86 43.7117 86 43.5025C86 43.2933 85.9465 43.0876 85.8447 42.9049C85.7428 42.7222 85.5959 42.5686 85.418 42.4586ZM61.5358 72.0596C60.8957 71.904 60.3416 71.5047 59.9914 70.9468C59.6412 70.3889 59.5225 69.7164 59.6606 69.0723C59.7987 68.4282 60.1827 67.8634 60.7308 67.4981C61.279 67.1328 61.948 66.9959 62.5956 67.1163C63.2382 67.2699 63.7951 67.6688 64.1473 68.2278C64.4995 68.7867 64.619 69.4613 64.4802 70.1072C64.3413 70.7531 63.9552 71.319 63.4045 71.6839C62.8537 72.0488 62.1847 72.1836 61.5358 72.0596ZM60.3219 63.8598C60.0265 63.7966 59.7215 63.7923 59.4243 63.847C59.1272 63.9017 58.8437 64.0144 58.5902 64.1787C58.3366 64.343 58.1179 64.5556 57.9465 64.8044C57.7751 65.0532 57.6544 65.3334 57.5913 65.6289L56.3243 71.5416C52.2961 73.3684 47.9231 74.3104 43.5 74.3041C38.825 74.3041 34.3891 73.2682 30.4074 71.4168L29.1404 65.5067C29.0776 65.211 28.9571 64.9305 28.7859 64.6814C28.6146 64.4323 28.3959 64.2194 28.1423 64.0548C27.8887 63.8903 27.6052 63.7773 27.3079 63.7225C27.0106 63.6676 26.7054 63.6718 26.4098 63.735L21.1903 64.8559C20.2204 63.8578 19.3188 62.7956 18.4916 61.6764H43.8878C44.1747 61.6764 44.3659 61.6233 44.3659 61.363V52.3796C44.3659 52.1166 44.1747 52.0662 43.8878 52.0662H36.461V46.3686H44.4934C45.2266 46.3686 48.414 46.5784 49.434 50.6531C49.7528 51.9042 50.454 55.9815 50.9321 57.2857C51.4103 58.7492 53.3546 61.6737 55.4265 61.6737H68.0808C68.235 61.6724 68.3888 61.6573 68.5403 61.6286C67.6637 62.8212 66.6995 63.9501 65.6636 65.002L60.3246 63.8572L60.3219 63.8598ZM25.1986 71.9347C24.551 72.0552 23.8819 71.9182 23.3337 71.5529C22.7856 71.1876 22.4016 70.6229 22.2635 69.9788C22.1254 69.3347 22.2441 68.6621 22.5943 68.1042C22.9445 67.5463 23.4986 67.1471 24.1387 66.9915C24.4635 66.9221 24.7987 66.9173 25.1253 66.9775C25.4519 67.0376 25.7635 67.1615 26.0422 67.342C26.3209 67.5226 26.5613 67.7563 26.7497 68.0297C26.9382 68.3032 27.0709 68.6111 27.1403 68.9359C27.2097 69.2606 27.2145 69.5958 27.1543 69.9224C27.0942 70.249 26.9703 70.5606 26.7897 70.8393C26.6092 71.118 26.3755 71.3585 26.102 71.5469C25.8286 71.7353 25.5207 71.868 25.1959 71.9374L25.1986 71.9347ZM15.5644 32.8697C15.6989 33.1726 15.7724 33.4991 15.7807 33.8304C15.789 34.1618 15.7319 34.4915 15.6128 34.8008C15.4937 35.1101 15.3148 35.3929 15.0863 35.6331C14.8579 35.8733 14.5844 36.0661 14.2815 36.2006C13.9785 36.335 13.652 36.4085 13.3207 36.4168C12.9893 36.4251 12.6596 36.3681 12.3503 36.2489C12.041 36.1298 11.7582 35.9509 11.518 35.7225C11.2778 35.4941 11.085 35.2206 10.9505 34.9176C10.679 34.3058 10.6616 33.6111 10.9022 32.9864C11.1428 32.3618 11.6217 31.8583 12.2335 31.5867C12.8453 31.3151 13.54 31.2977 14.1647 31.5383C14.7893 31.7789 15.2928 32.2578 15.5644 32.8697ZM12.6027 39.8901L18.04 37.4729C18.598 37.2242 19.0345 36.7643 19.2536 36.194C19.4728 35.6238 19.4566 34.9899 19.2088 34.4315L18.0905 31.9001H22.4945V51.7527H13.6094C12.5125 47.9003 12.1725 43.8724 12.6027 39.8901ZM36.4636 37.9616V32.11H46.9504C47.4923 32.11 50.7754 32.7368 50.7754 35.1912C50.7754 37.2285 48.2573 37.9616 46.1855 37.9616H36.4636ZM74.5779 43.2289C74.5779 44.0045 74.5487 44.7722 74.4903 45.5345H71.3028C70.984 45.5345 70.8565 45.747 70.8565 46.0578V47.5214C70.8565 50.9692 68.9122 51.7182 67.2095 51.9095C65.5892 52.0901 63.7883 51.2295 63.5678 50.236C62.6116 44.8572 61.0178 43.7071 58.4997 41.7202C61.6235 39.7387 64.8747 36.8115 64.8747 32.8936C64.8747 28.6622 61.9741 25.998 59.9979 24.6912C57.2247 22.8637 54.1541 22.4971 53.3254 22.4971H20.3509C24.9072 17.4011 31.0185 13.9518 37.736 12.685L41.622 16.7623C42.5013 17.6814 43.9595 17.7186 44.8759 16.8367L49.2268 12.6771C53.6592 13.5093 57.8576 15.2954 61.531 17.9116C65.2044 20.5278 68.265 23.9115 70.5006 27.8282L67.523 34.5537C67.2758 35.1121 67.2601 35.7458 67.4791 36.3158C67.6982 36.8858 68.1342 37.3458 68.6917 37.5951L74.4265 40.1397C74.5248 41.1571 74.5779 42.185 74.5779 43.2289ZM41.6247 9.216C41.8644 8.9868 42.147 8.80711 42.4562 8.68719C42.7654 8.56727 43.0952 8.50949 43.4268 8.51714C43.7583 8.52479 44.0851 8.59771 44.3885 8.73176C44.6918 8.8658 44.9658 9.05834 45.1947 9.29834C45.4239 9.53867 45.6035 9.82179 45.7232 10.1315C45.843 10.4413 45.9006 10.7716 45.8927 11.1036C45.8848 11.4356 45.8116 11.7628 45.6772 12.0665C45.5429 12.3702 45.35 12.6444 45.1097 12.8736C44.87 13.1026 44.5876 13.282 44.2785 13.4016C43.9694 13.5213 43.6397 13.5788 43.3084 13.5709C42.977 13.563 42.6505 13.4899 42.3475 13.3556C42.0444 13.2214 41.7708 13.0287 41.5424 12.7886C41.0806 12.3034 40.83 11.6549 40.8455 10.9853C40.8609 10.3157 41.1411 9.67944 41.6247 9.216ZM71.17 32.9918C71.4419 32.38 71.9457 31.9013 72.5707 31.6609C73.1956 31.4206 73.8904 31.4383 74.5022 31.7102C75.114 31.9821 75.5928 32.486 75.8332 33.1109C76.0735 33.7358 76.0558 34.4306 75.7838 35.0425C75.6492 35.3454 75.4562 35.6189 75.2159 35.8472C74.9755 36.0756 74.6926 36.2544 74.3832 36.3734C74.0737 36.4924 73.7439 36.5493 73.4125 36.5408C73.0811 36.5324 72.7546 36.4587 72.4516 36.3241C72.1487 36.1894 71.8752 35.9964 71.6468 35.7561C71.4185 35.5158 71.2397 35.2328 71.1206 34.9234C71.0016 34.614 70.9447 34.2841 70.9532 33.9527C70.9617 33.6213 71.0353 33.2948 71.17 32.9918Z" fill="#A03581"/>
<path d="M85.418 42.4586L81.8507 40.2486C81.8207 39.9021 81.787 39.5559 81.7497 39.2101L84.815 36.3493C84.9696 36.2075 85.0851 36.0283 85.1503 35.829C85.2155 35.6296 85.2284 35.4168 85.1875 35.2111C85.1467 35.0054 85.0536 34.8136 84.9172 34.6543C84.7808 34.4949 84.6056 34.3734 84.4086 34.3014L80.488 32.8351C80.3902 32.4966 80.2884 32.1592 80.1826 31.8231L82.6263 28.4258C82.7491 28.2562 82.8265 28.058 82.8511 27.8501C82.8757 27.6422 82.8467 27.4314 82.7668 27.2379C82.6869 27.0443 82.5589 26.8744 82.3948 26.7444C82.2307 26.6143 82.0361 26.5283 81.8294 26.4947L77.6937 25.8227C77.5343 25.5093 77.367 25.2011 77.197 24.893L78.9341 21.0813C79.0229 20.891 79.0611 20.6811 79.0451 20.4717C79.0291 20.2623 78.9594 20.0606 78.8427 19.886C78.7261 19.7114 78.5664 19.5699 78.3791 19.4749C78.1917 19.38 77.9831 19.335 77.7734 19.3442L73.5792 19.4903C73.362 19.2194 73.1407 18.952 72.9151 18.6881L73.8793 14.6002C73.9283 14.3964 73.9242 14.1834 73.8673 13.9817C73.8105 13.78 73.7028 13.5962 73.5546 13.448C73.4064 13.2998 73.2226 13.1921 73.0209 13.1353C72.8192 13.0784 72.6062 13.0743 72.4025 13.1233L68.3172 14.0849C68.0515 13.8617 67.7859 13.6413 67.5123 13.4208L67.6584 9.22927C67.6676 9.01949 67.6226 8.81088 67.5277 8.62357C67.4327 8.43626 67.2912 8.27657 67.1166 8.15991C66.942 8.04325 66.7403 7.97355 66.5309 7.95754C66.3215 7.94153 66.1116 7.97974 65.9213 8.0685L62.1096 9.80568C61.8017 9.63554 61.4917 9.46908 61.1799 9.30631L60.5079 5.17322C60.4744 4.96677 60.3887 4.7723 60.259 4.60826C60.1292 4.44423 59.9597 4.31608 59.7665 4.23598C59.5733 4.15588 59.3628 4.12649 59.1551 4.15059C58.9473 4.17469 58.7492 4.25149 58.5794 4.3737L55.1794 6.81743C54.8444 6.71094 54.5079 6.60911 54.1701 6.51196L52.7038 2.59138C52.6315 2.3947 52.5099 2.21988 52.3507 2.08364C52.1915 1.9474 51.9999 1.8543 51.7944 1.81326C51.5889 1.77221 51.3763 1.78459 51.177 1.84921C50.9776 1.91383 50.7982 2.02852 50.6559 2.18231L47.7951 5.25291C47.4498 5.21572 47.1045 5.17853 46.7565 5.15197L44.5466 1.58201C44.4366 1.40407 44.283 1.25719 44.1003 1.15533C43.9175 1.05347 43.7118 1 43.5027 1C43.2935 1 43.0878 1.05347 42.9051 1.15533C42.7224 1.25719 42.5687 1.40407 42.4588 1.58201L40.2488 5.15197C39.9035 5.17853 39.5555 5.21572 39.2102 5.25291L36.3494 2.18497C36.2062 2.03321 36.0269 1.92028 35.8281 1.85678C35.6294 1.79327 35.4177 1.78126 35.2131 1.82187C35.0084 1.86248 34.8174 1.95439 34.658 2.08898C34.4985 2.22357 34.3759 2.39644 34.3015 2.59138L32.8352 6.51196C32.4952 6.61024 32.1579 6.71383 31.8259 6.82008L28.4259 4.3737C28.2567 4.24935 28.0584 4.17069 27.85 4.14529C27.6416 4.11989 27.4302 4.14862 27.2361 4.22871C27.042 4.30879 26.8719 4.43752 26.742 4.6025C26.6122 4.76747 26.527 4.96311 26.4948 5.17057L25.8201 9.30631C25.5093 9.46834 25.2012 9.63568 24.8904 9.80568L21.0814 8.0685C20.8913 7.97987 20.6816 7.94166 20.4725 7.95755C20.2633 7.97344 20.0618 8.0429 19.8873 8.15925C19.7128 8.27559 19.5711 8.4349 19.476 8.62184C19.3809 8.80878 19.3355 9.01706 19.3442 9.22662L19.4903 13.4235C19.2194 13.6413 18.9511 13.8617 18.6855 14.0875L14.6002 13.1233C14.3965 13.0761 14.1842 13.0814 13.9832 13.1389C13.7822 13.1963 13.5991 13.304 13.4511 13.4517C13.3031 13.5993 13.1952 13.7823 13.1374 13.9832C13.0796 14.1841 13.0738 14.3964 13.1207 14.6002L14.0849 18.6881C13.8591 18.9537 13.6386 19.2193 13.4208 19.4903L9.22665 19.3442C9.01736 19.3365 8.8096 19.3825 8.62313 19.4778C8.43665 19.5731 8.27768 19.7146 8.16133 19.8887C8.04498 20.0629 7.97512 20.2639 7.95841 20.4726C7.94171 20.6814 7.9787 20.8909 8.06587 21.0813L9.80305 24.8957C9.6357 25.2011 9.46837 25.5093 9.30633 25.8254L5.17323 26.4947C4.96634 26.528 4.77141 26.6136 4.60701 26.7435C4.4426 26.8735 4.3142 27.0433 4.23404 27.2369C4.15388 27.4305 4.12464 27.6414 4.14908 27.8495C4.17353 28.0577 4.25087 28.256 4.37371 28.4258L6.81745 31.8231C6.7112 32.1578 6.61026 32.4951 6.51198 32.8325L2.59138 34.3014C2.39542 34.3746 2.22143 34.4967 2.08594 34.6561C1.95044 34.8155 1.85795 35.0068 1.81723 35.212C1.77651 35.4172 1.78892 35.6294 1.85328 35.8285C1.91765 36.0275 2.03182 36.2068 2.18497 36.3493L5.25292 39.2101C5.21308 39.5554 5.17855 39.9007 5.14933 40.2486L1.58201 42.4586C1.40407 42.5686 1.2572 42.7222 1.15533 42.9049C1.05347 43.0876 1 43.2933 1 43.5025C1 43.7117 1.05347 43.9174 1.15533 44.1001C1.2572 44.2828 1.40407 44.4364 1.58201 44.5464L5.14933 46.7537C5.17855 47.1017 5.21308 47.4497 5.25292 47.795L2.18497 50.6557C2.03182 50.7982 1.91765 50.9775 1.85328 51.1766C1.78892 51.3756 1.77651 51.5878 1.81723 51.793C1.85795 51.9982 1.95044 52.1896 2.08594 52.349C2.22143 52.5083 2.39542 52.6305 2.59138 52.7037L6.51198 54.1699C6.61026 54.5099 6.71385 54.8472 6.8201 55.1793L4.37371 58.5792C4.2515 58.749 4.1747 58.9471 4.1506 59.1549C4.1265 59.3626 4.15589 59.5731 4.23599 59.7663C4.31609 59.9595 4.44424 60.129 4.60827 60.2588C4.77231 60.3885 4.96678 60.4742 5.17323 60.5077L9.30633 61.1797C9.46837 61.4931 9.63305 61.8039 9.80571 62.1094L8.06587 65.921C7.9787 66.1115 7.94171 66.321 7.95841 66.5298C7.97512 66.7385 8.04498 66.9395 8.16133 67.1137C8.27768 67.2878 8.43665 67.4292 8.62313 67.5246C8.8096 67.6199 9.01736 67.6659 9.22665 67.6582L13.4208 67.5121C13.6386 67.7857 13.8591 68.0513 14.0849 68.317L13.1207 72.4049C13.0713 72.6088 13.0752 72.8221 13.1321 73.0241C13.1891 73.2261 13.2971 73.41 13.4457 73.5582C13.5944 73.7063 13.7787 73.8136 13.9809 73.8699C14.1831 73.9261 14.3964 73.9292 14.6002 73.8791L18.6855 72.9175C18.9511 73.1433 19.2194 73.3611 19.4903 73.5789L19.3442 77.7758C19.3363 77.9851 19.3822 78.1929 19.4775 78.3794C19.5728 78.566 19.7143 78.7249 19.8886 78.8411C20.0629 78.9573 20.2641 79.0268 20.4729 79.0431C20.6817 79.0593 20.8913 79.0217 21.0814 78.9339L24.8931 77.1967C25.1986 77.3667 25.5093 77.5341 25.8228 77.6961L26.4948 81.8265C26.527 82.034 26.612 82.2298 26.7416 82.395C26.8713 82.5601 27.0412 82.6892 27.2351 82.7698C27.429 82.8503 27.6404 82.8797 27.849 82.855C28.0575 82.8302 28.2562 82.7523 28.4259 82.6287L31.8232 80.1796C32.1579 80.2859 32.4952 80.3921 32.8326 80.4878L34.2988 84.4084C34.3708 84.6054 34.4924 84.7805 34.6517 84.9169C34.811 85.0533 35.0028 85.1464 35.2086 85.1873C35.4143 85.2281 35.6271 85.2153 35.8264 85.15C36.0258 85.0848 36.205 84.9693 36.3468 84.8148L39.2102 81.7468C39.5555 81.7867 39.9008 81.8212 40.2488 81.8531L42.4588 85.4204C42.5692 85.5977 42.723 85.744 42.9056 85.8454C43.0883 85.9468 43.2937 86 43.5027 86C43.7116 86 43.917 85.9468 44.0997 85.8454C44.2823 85.744 44.4361 85.5977 44.5466 85.4204L46.7539 81.8504C47.1018 81.8212 47.4498 81.7867 47.7951 81.7468L50.6559 84.8148C50.7978 84.9687 50.9768 85.0836 51.1758 85.1484C51.3748 85.2133 51.5872 85.2259 51.7925 85.1851C51.9978 85.1443 52.1892 85.0515 52.3483 84.9155C52.5075 84.7794 52.629 84.6048 52.7012 84.4084L54.1701 80.4878C54.5074 80.3921 54.8448 80.2859 55.1794 80.1796L58.5794 82.6287C58.7495 82.7502 58.9478 82.8263 59.1555 82.8499C59.3632 82.8734 59.5735 82.8437 59.7665 82.7634C59.9595 82.6831 60.1289 82.5549 60.2586 82.391C60.3883 82.2271 60.4741 82.0328 60.5079 81.8265L61.1825 77.6934C61.4933 77.5341 61.8014 77.3641 62.1096 77.1967L65.9213 78.9339C66.1116 79.0218 66.3214 79.0594 66.5304 79.0431C66.7395 79.0267 66.9409 78.9569 67.1152 78.8404C67.2896 78.7239 67.4311 78.5646 67.5262 78.3777C67.6213 78.1908 67.6669 77.9826 67.6584 77.7731L67.5123 73.5763C67.7833 73.3638 68.0515 73.1433 68.3172 72.9175L72.4025 73.8791C72.6061 73.9287 72.819 73.9251 73.0208 73.8686C73.2226 73.8122 73.4065 73.7048 73.5549 73.5567C73.7032 73.4087 73.8109 73.2249 73.8678 73.0232C73.9246 72.8215 73.9286 72.6086 73.8793 72.4049L72.9178 68.317C73.1409 68.0513 73.3614 67.7857 73.5792 67.5121L77.776 67.6582C77.9856 67.6669 78.1939 67.6215 78.3808 67.5264C78.5677 67.4313 78.727 67.2897 78.8434 67.1152C78.9597 66.9407 79.0292 66.7391 79.0451 66.53C79.061 66.3208 79.0228 66.1111 78.9341 65.921L77.197 62.1094C77.367 61.8039 77.5316 61.4931 77.6937 61.1797L81.8268 60.5077C82.034 60.4756 82.2295 60.3907 82.3944 60.2612C82.5594 60.1316 82.6882 59.9619 82.7685 59.7681C82.8488 59.5744 82.8779 59.3633 82.853 59.1551C82.8281 58.9469 82.75 58.7485 82.6263 58.5792L80.1826 55.1793C80.2882 54.844 80.39 54.5075 80.488 54.1699L84.4086 52.7037C84.6056 52.6316 84.7808 52.5101 84.9172 52.3508C85.0536 52.1915 85.1467 51.9997 85.1875 51.7939C85.2284 51.5882 85.2155 51.3754 85.1503 51.1761C85.0851 50.9767 84.9696 50.7975 84.815 50.6557L81.7471 47.795C81.7843 47.4497 81.8188 47.1017 81.8507 46.7537L85.418 44.5464C85.5959 44.4364 85.7428 44.2828 85.8447 44.1001C85.9465 43.9174 86 43.7117 86 43.5025C86 43.2933 85.9465 43.0876 85.8447 42.9049C85.7428 42.7222 85.5959 42.5686 85.418 42.4586ZM61.5358 72.0596C60.8957 71.904 60.3416 71.5047 59.9914 70.9468C59.6412 70.3889 59.5225 69.7164 59.6606 69.0723C59.7987 68.4282 60.1827 67.8634 60.7308 67.4981C61.279 67.1328 61.948 66.9959 62.5956 67.1163C63.2382 67.2699 63.7951 67.6688 64.1473 68.2278C64.4995 68.7867 64.619 69.4613 64.4802 70.1072C64.3413 70.7531 63.9552 71.319 63.4045 71.6839C62.8537 72.0488 62.1847 72.1836 61.5358 72.0596ZM60.3219 63.8598C60.0265 63.7966 59.7215 63.7923 59.4243 63.847C59.1272 63.9017 58.8437 64.0144 58.5902 64.1787C58.3366 64.343 58.1179 64.5556 57.9465 64.8044C57.7751 65.0532 57.6544 65.3334 57.5913 65.6289L56.3243 71.5416C52.2961 73.3684 47.9231 74.3104 43.5 74.3041C38.825 74.3041 34.3891 73.2682 30.4074 71.4168L29.1404 65.5067C29.0776 65.211 28.9571 64.9305 28.7859 64.6814C28.6146 64.4323 28.3959 64.2194 28.1423 64.0548C27.8887 63.8903 27.6052 63.7773 27.3079 63.7225C27.0106 63.6676 26.7054 63.6718 26.4098 63.735L21.1903 64.8559C20.2204 63.8578 19.3188 62.7956 18.4916 61.6764H43.8878C44.1747 61.6764 44.3659 61.6233 44.3659 61.363V52.3796C44.3659 52.1166 44.1747 52.0662 43.8878 52.0662H36.461V46.3686H44.4934C45.2266 46.3686 48.414 46.5784 49.434 50.6531C49.7528 51.9042 50.454 55.9815 50.9321 57.2857C51.4103 58.7492 53.3546 61.6737 55.4265 61.6737H68.0808C68.235 61.6724 68.3888 61.6573 68.5403 61.6286C67.6637 62.8212 66.6995 63.9501 65.6636 65.002L60.3246 63.8572L60.3219 63.8598ZM25.1986 71.9347C24.551 72.0552 23.8819 71.9182 23.3337 71.5529C22.7856 71.1876 22.4016 70.6229 22.2635 69.9788C22.1254 69.3347 22.2441 68.6621 22.5943 68.1042C22.9445 67.5463 23.4986 67.1471 24.1387 66.9915C24.4635 66.9221 24.7987 66.9173 25.1253 66.9775C25.4519 67.0376 25.7635 67.1615 26.0422 67.342C26.3209 67.5226 26.5613 67.7563 26.7497 68.0297C26.9382 68.3032 27.0709 68.6111 27.1403 68.9359C27.2097 69.2606 27.2145 69.5958 27.1543 69.9224C27.0942 70.249 26.9703 70.5606 26.7897 70.8393C26.6092 71.118 26.3755 71.3585 26.102 71.5469C25.8286 71.7353 25.5207 71.868 25.1959 71.9374L25.1986 71.9347ZM15.5644 32.8697C15.6989 33.1726 15.7724 33.4991 15.7807 33.8304C15.789 34.1618 15.7319 34.4915 15.6128 34.8008C15.4937 35.1101 15.3148 35.3929 15.0863 35.6331C14.8579 35.8733 14.5844 36.0661 14.2815 36.2006C13.9785 36.335 13.652 36.4085 13.3207 36.4168C12.9893 36.4251 12.6596 36.3681 12.3503 36.2489C12.041 36.1298 11.7582 35.9509 11.518 35.7225C11.2778 35.4941 11.085 35.2206 10.9505 34.9176C10.679 34.3058 10.6616 33.6111 10.9022 32.9864C11.1428 32.3618 11.6217 31.8583 12.2335 31.5867C12.8453 31.3151 13.54 31.2977 14.1647 31.5383C14.7893 31.7789 15.2928 32.2578 15.5644 32.8697ZM12.6027 39.8901L18.04 37.4729C18.598 37.2242 19.0345 36.7643 19.2536 36.194C19.4728 35.6238 19.4566 34.9899 19.2088 34.4315L18.0905 31.9001H22.4945V51.7527H13.6094C12.5125 47.9003 12.1725 43.8724 12.6027 39.8901ZM36.4636 37.9616V32.11H46.9504C47.4923 32.11 50.7754 32.7368 50.7754 35.1912C50.7754 37.2285 48.2573 37.9616 46.1855 37.9616H36.4636ZM74.5779 43.2289C74.5779 44.0045 74.5487 44.7722 74.4903 45.5345H71.3028C70.984 45.5345 70.8565 45.747 70.8565 46.0578V47.5214C70.8565 50.9692 68.9122 51.7182 67.2095 51.9095C65.5892 52.0901 63.7883 51.2295 63.5678 50.236C62.6116 44.8572 61.0178 43.7071 58.4997 41.7202C61.6235 39.7387 64.8747 36.8115 64.8747 32.8936C64.8747 28.6622 61.9741 25.998 59.9979 24.6912C57.2247 22.8637 54.1541 22.4971 53.3254 22.4971H20.3509C24.9072 17.4011 31.0185 13.9518 37.736 12.685L41.622 16.7623C42.5013 17.6814 43.9595 17.7186 44.8759 16.8367L49.2268 12.6771C53.6592 13.5093 57.8576 15.2954 61.531 17.9116C65.2044 20.5278 68.265 23.9115 70.5006 27.8282L67.523 34.5537C67.2758 35.1121 67.2601 35.7458 67.4791 36.3158C67.6982 36.8858 68.1342 37.3458 68.6917 37.5951L74.4265 40.1397C74.5248 41.1571 74.5779 42.185 74.5779 43.2289ZM41.6247 9.216C41.8644 8.9868 42.147 8.80711 42.4562 8.68719C42.7654 8.56727 43.0952 8.50949 43.4268 8.51714C43.7583 8.52479 44.0851 8.59771 44.3885 8.73176C44.6918 8.8658 44.9658 9.05834 45.1947 9.29834C45.4239 9.53867 45.6035 9.82179 45.7232 10.1315C45.843 10.4413 45.9006 10.7716 45.8927 11.1036C45.8848 11.4356 45.8116 11.7628 45.6772 12.0665C45.5429 12.3702 45.35 12.6444 45.1097 12.8736C44.87 13.1026 44.5876 13.282 44.2785 13.4016C43.9694 13.5213 43.6397 13.5788 43.3084 13.5709C42.977 13.563 42.6505 13.4899 42.3475 13.3556C42.0444 13.2214 41.7708 13.0287 41.5424 12.7886C41.0806 12.3034 40.83 11.6549 40.8455 10.9853C40.8609 10.3157 41.1411 9.67944 41.6247 9.216ZM71.17 32.9918C71.4419 32.38 71.9457 31.9013 72.5707 31.6609C73.1956 31.4206 73.8904 31.4383 74.5022 31.7102C75.114 31.9821 75.5928 32.486 75.8332 33.1109C76.0735 33.7358 76.0558 34.4306 75.7838 35.0425C75.6492 35.3454 75.4562 35.6189 75.2159 35.8472C74.9755 36.0756 74.6926 36.2544 74.3832 36.3734C74.0737 36.4924 73.7439 36.5493 73.4125 36.5408C73.0811 36.5324 72.7546 36.4587 72.4516 36.3241C72.1487 36.1894 71.8752 35.9964 71.6468 35.7561C71.4185 35.5158 71.2397 35.2328 71.1206 34.9234C71.0016 34.614 70.9447 34.2841 70.9532 33.9527C70.9617 33.6213 71.0353 33.2948 71.17 32.9918Z" stroke="black" stroke-opacity="0.25" stroke-width="2" mask="url(#path-1-outside-1_244_3)"/>
</svg>
