<svg width="73" height="82" viewBox="0 0 73 82" fill="none" xmlns="http://www.w3.org/2000/svg">
<path d="M39.9727 0.866029L72.0987 19.4141V56.5102L60.3966 49.7566V35.0671C60.419 34.1136 59.339 33.5294 58.5556 34.0022L43.1373 42.9072C43.1367 42.9075 43.1362 42.9078 43.1356 42.9081C42.5535 43.24 42.1547 43.8774 42.1547 44.5978V62.401C42.1431 62.8842 42.4251 63.2661 42.7708 63.4643C43.1158 63.6621 43.5863 63.713 43.9956 63.4661L56.7228 56.1207L68.4252 62.8746L36.2994 81.4226L4.17353 62.8746L15.8759 56.1207L28.6023 63.4656C29.0169 63.7178 29.488 63.6644 29.8329 63.4613C30.176 63.2592 30.4498 62.8768 30.444 62.4043L30.444 44.5978L30.444 44.5963C30.443 44.2536 30.3519 43.9171 30.1797 43.6208C30.1409 43.5541 30.0945 43.5098 30.0822 43.498C30.0618 43.4784 30.0417 43.4617 30.0262 43.4492C29.9947 43.4239 29.9583 43.3975 29.922 43.3722C29.8482 43.3207 29.7495 43.2562 29.6331 43.1824C29.3991 43.0339 29.075 42.836 28.693 42.6068C27.9282 42.1479 26.9197 41.5563 25.9101 40.9688C23.9869 39.8495 22.0534 38.7409 21.7776 38.5828L21.7548 38.5698L21.7488 38.5663L14.047 34.0044C13.6315 33.7503 13.1591 33.8034 12.8133 34.007C12.4701 34.2091 12.1964 34.5914 12.2021 35.0639V49.7566L0.5 56.5102V19.4141L32.6259 0.866031V14.3819L19.9094 21.726C19.4815 21.9564 19.2911 22.3937 19.2928 22.7932C19.2945 23.1915 19.4873 23.6256 19.9081 23.8553L35.3249 32.7593C35.3255 32.7597 35.3261 32.76 35.3267 32.7604C35.623 32.9339 35.9601 33.0254 36.3034 33.0254C36.6469 33.0254 36.9841 32.9339 37.2804 32.7602C37.281 32.7599 37.2815 32.7596 37.282 32.7593L52.7003 23.8546C53.5405 23.3912 53.4885 22.1744 52.7032 21.7291C52.7023 21.7286 52.7015 21.7282 52.7006 21.7277L39.9727 14.3821V0.866029Z" fill="#A03581" stroke="#1C1B1F"/>
</svg>
