<svg width="81" height="82" viewBox="0 0 81 82" fill="none" xmlns="http://www.w3.org/2000/svg">
<mask id="path-1-outside-1_244_22" maskUnits="userSpaceOnUse" x="0" y="0" width="81" height="82" fill="black">
<rect fill="white" width="81" height="82"/>
<path d="M40.5 1.00004C18.6748 1.00004 1 18.9025 1 41C1 63.0975 18.6748 81 40.5 81C62.3103 81 80 63.0975 80 41C80 18.9025 62.3252 1.00004 40.5 1.00004ZM40.5 2.7575C50.576 2.7575 60.067 6.7425 67.2002 13.955C74.3184 21.1425 78.287 30.87 78.2621 41C78.2621 51.2075 74.3333 60.8175 67.2002 68.045C60.1591 75.22 50.5362 79.255 40.5 79.2425C30.4638 79.255 20.8409 75.22 13.7998 68.045C6.68163 60.8575 2.7005 51.13 2.7254 41C2.7254 30.7925 6.66669 21.1825 13.7874 13.955C20.8284 6.7675 30.4638 2.73 40.5 2.7575ZM38.5157 16.8325C32.0846 18.565 26.1316 21.885 18.1968 31.025C10.2619 40.165 11.7657 47.7175 11.7657 47.7175C11.7657 47.7175 13.9567 42.5225 19.2225 37.0525C21.7247 34.4625 23.5796 33.59 24.8643 33.59C26.0046 33.525 26.9657 34.45 26.9657 35.595V54.15C26.9657 55.985 25.7855 56.39 24.6975 56.3625C23.7763 56.35 22.9198 56.025 22.9198 56.025C28.3276 63.915 41.2693 65.0225 41.2693 65.0225L46.9485 58.9275L47.0779 59.045L52.279 63.4975C61.7974 57.82 66.3885 47.3 66.3885 47.3C62.136 51.805 59.4371 52.86 57.8287 52.86C56.4021 52.8475 55.8444 52.0125 55.8444 52.0125C55.7672 51.6225 55.6377 45.97 55.5854 40.32C55.5332 34.4725 55.5854 28.615 55.8718 28.6C57.5175 25.5 62.7584 19.25 62.7584 19.25C52.9687 21.19 47.6381 27.635 47.6381 27.635C46.0571 26.385 42.5 26.5 42.5 26.5C44.0038 27.3325 45.848 29.8475 45.848 31.8525V51.5925C45.848 51.5925 42.5665 54.495 40.0394 54.495C38.5356 54.495 37.6144 53.675 37.1089 52.9975C36.9147 52.7375 36.7454 52.45 36.616 52.1375V27.7625C36.2649 28.0225 35.8367 28.165 35.4109 28.18C34.8657 28.18 34.308 27.9075 33.932 27.1125C33.6457 26.5125 33.4639 25.615 33.4639 24.3C33.4639 19.8075 38.5157 16.8325 38.5157 16.8325Z"/>
</mask>
<path d="M40.5 1.00004C18.6748 1.00004 1 18.9025 1 41C1 63.0975 18.6748 81 40.5 81C62.3103 81 80 63.0975 80 41C80 18.9025 62.3252 1.00004 40.5 1.00004ZM40.5 2.7575C50.576 2.7575 60.067 6.7425 67.2002 13.955C74.3184 21.1425 78.287 30.87 78.2621 41C78.2621 51.2075 74.3333 60.8175 67.2002 68.045C60.1591 75.22 50.5362 79.255 40.5 79.2425C30.4638 79.255 20.8409 75.22 13.7998 68.045C6.68163 60.8575 2.7005 51.13 2.7254 41C2.7254 30.7925 6.66669 21.1825 13.7874 13.955C20.8284 6.7675 30.4638 2.73 40.5 2.7575ZM38.5157 16.8325C32.0846 18.565 26.1316 21.885 18.1968 31.025C10.2619 40.165 11.7657 47.7175 11.7657 47.7175C11.7657 47.7175 13.9567 42.5225 19.2225 37.0525C21.7247 34.4625 23.5796 33.59 24.8643 33.59C26.0046 33.525 26.9657 34.45 26.9657 35.595V54.15C26.9657 55.985 25.7855 56.39 24.6975 56.3625C23.7763 56.35 22.9198 56.025 22.9198 56.025C28.3276 63.915 41.2693 65.0225 41.2693 65.0225L46.9485 58.9275L47.0779 59.045L52.279 63.4975C61.7974 57.82 66.3885 47.3 66.3885 47.3C62.136 51.805 59.4371 52.86 57.8287 52.86C56.4021 52.8475 55.8444 52.0125 55.8444 52.0125C55.7672 51.6225 55.6377 45.97 55.5854 40.32C55.5332 34.4725 55.5854 28.615 55.8718 28.6C57.5175 25.5 62.7584 19.25 62.7584 19.25C52.9687 21.19 47.6381 27.635 47.6381 27.635C46.0571 26.385 42.5 26.5 42.5 26.5C44.0038 27.3325 45.848 29.8475 45.848 31.8525V51.5925C45.848 51.5925 42.5665 54.495 40.0394 54.495C38.5356 54.495 37.6144 53.675 37.1089 52.9975C36.9147 52.7375 36.7454 52.45 36.616 52.1375V27.7625C36.2649 28.0225 35.8367 28.165 35.4109 28.18C34.8657 28.18 34.308 27.9075 33.932 27.1125C33.6457 26.5125 33.4639 25.615 33.4639 24.3C33.4639 19.8075 38.5157 16.8325 38.5157 16.8325Z" fill="#A03581"/>
<path d="M40.5 1.00004C18.6748 1.00004 1 18.9025 1 41C1 63.0975 18.6748 81 40.5 81C62.3103 81 80 63.0975 80 41C80 18.9025 62.3252 1.00004 40.5 1.00004ZM40.5 2.7575C50.576 2.7575 60.067 6.7425 67.2002 13.955C74.3184 21.1425 78.287 30.87 78.2621 41C78.2621 51.2075 74.3333 60.8175 67.2002 68.045C60.1591 75.22 50.5362 79.255 40.5 79.2425C30.4638 79.255 20.8409 75.22 13.7998 68.045C6.68163 60.8575 2.7005 51.13 2.7254 41C2.7254 30.7925 6.66669 21.1825 13.7874 13.955C20.8284 6.7675 30.4638 2.73 40.5 2.7575ZM38.5157 16.8325C32.0846 18.565 26.1316 21.885 18.1968 31.025C10.2619 40.165 11.7657 47.7175 11.7657 47.7175C11.7657 47.7175 13.9567 42.5225 19.2225 37.0525C21.7247 34.4625 23.5796 33.59 24.8643 33.59C26.0046 33.525 26.9657 34.45 26.9657 35.595V54.15C26.9657 55.985 25.7855 56.39 24.6975 56.3625C23.7763 56.35 22.9198 56.025 22.9198 56.025C28.3276 63.915 41.2693 65.0225 41.2693 65.0225L46.9485 58.9275L47.0779 59.045L52.279 63.4975C61.7974 57.82 66.3885 47.3 66.3885 47.3C62.136 51.805 59.4371 52.86 57.8287 52.86C56.4021 52.8475 55.8444 52.0125 55.8444 52.0125C55.7672 51.6225 55.6377 45.97 55.5854 40.32C55.5332 34.4725 55.5854 28.615 55.8718 28.6C57.5175 25.5 62.7584 19.25 62.7584 19.25C52.9687 21.19 47.6381 27.635 47.6381 27.635C46.0571 26.385 42.5 26.5 42.5 26.5C44.0038 27.3325 45.848 29.8475 45.848 31.8525V51.5925C45.848 51.5925 42.5665 54.495 40.0394 54.495C38.5356 54.495 37.6144 53.675 37.1089 52.9975C36.9147 52.7375 36.7454 52.45 36.616 52.1375V27.7625C36.2649 28.0225 35.8367 28.165 35.4109 28.18C34.8657 28.18 34.308 27.9075 33.932 27.1125C33.6457 26.5125 33.4639 25.615 33.4639 24.3C33.4639 19.8075 38.5157 16.8325 38.5157 16.8325Z" stroke="#1C1B1F" stroke-width="2" mask="url(#path-1-outside-1_244_22)"/>
</svg>
