<svg width="89" height="73" viewBox="0 0 89 73" fill="none" xmlns="http://www.w3.org/2000/svg">
<path d="M84.5287 30.4738L84.5288 30.474C86.4818 33.6385 87.7303 37.0856 88.2428 40.7204C88.5052 42.5993 88.5668 44.4977 88.4237 46.3621C88.2691 48.2928 87.9013 50.2 87.3272 52.0483C86.1665 55.7826 84.21 59.2101 81.5083 62.2341C78.7043 65.3635 75.2767 67.8571 71.3187 69.6438C67.1279 71.5276 62.6223 72.4888 57.923 72.5002H57.8802C53.196 72.5002 48.7048 71.5541 44.5277 69.6916C40.5769 67.9262 37.148 65.4429 34.3332 62.3128C31.6284 59.3047 29.6692 55.8832 28.5063 52.1458C27.9441 50.3289 27.5923 48.095 27.5742 47.0137C27.5648 46.3279 27.6486 45.3644 27.7201 44.6907L27.8493 43.473L26.9047 44.2523L10.1586 58.0685C10.1582 58.0688 10.1578 58.0691 10.1575 58.0694C8.71946 59.2401 7.0157 59.8714 5.36545 59.8714C3.68912 59.8714 2.30533 59.2258 1.4269 58.0902L1.42685 58.0902C0.688697 57.1362 0.376375 55.9335 0.54691 54.5869L0.546914 54.5868C0.7726 52.8037 1.82452 51.0424 3.46346 49.7743L3.58195 49.687L3.58418 49.6853L34.5991 26.5529L35.8116 25.6486L34.299 25.6521L30.8565 25.6602H30.8564L30.6635 25.6607C27.1178 25.6693 23.5684 25.6779 20.0345 25.6779C20.0343 25.6779 20.0342 25.6779 20.0341 25.6779L17.4293 25.6762H17.429C15.923 25.6762 14.6053 25.0685 13.6984 23.9775C12.8349 22.9378 12.4607 21.5924 12.6733 20.3933L12.6733 20.393C12.9242 18.9737 13.6529 17.8539 14.7644 17.0812C15.8834 16.3032 17.4189 15.8585 19.2971 15.8585C19.2972 15.8585 19.2973 15.8585 19.2974 15.8585L53.4701 15.8818L54.9016 15.8828L53.782 14.9908C51.9991 13.5703 50.2071 12.111 48.4657 10.6921L48.4656 10.6921L48.4288 10.662C46.6489 9.21235 44.8687 7.76248 43.0842 6.34293C42.2706 5.66479 41.8835 4.83327 41.916 4.00545C41.9519 3.11156 42.4663 2.22315 43.4621 1.52188L43.463 1.52124C44.3854 0.868648 45.5874 0.500244 46.847 0.500244C48.1058 0.500244 49.2495 0.867913 50.0764 1.50652L50.0828 1.5115L50.0894 1.51626C50.0975 1.52211 50.1053 1.52838 50.1128 1.53503L50.1254 1.54621L50.1387 1.55652L77.5742 22.8001L77.574 22.8003L78.0253 23.1615C80.6384 25.2529 82.8253 27.7116 84.5287 30.4738ZM65.8896 47.3132L65.8894 47.3134C63.9875 49.1951 61.2659 50.3843 58.2116 50.3843C55.1587 50.3843 52.4366 49.1951 50.534 47.3134L50.5339 47.3132C48.666 45.4671 47.6135 42.9851 47.7586 40.3208C47.9009 37.7304 49.1541 35.4352 51.0575 33.8028C52.93 32.1971 55.4507 31.2125 58.2114 31.2125C60.9725 31.2125 63.4926 32.1974 65.3653 33.8029L65.6907 33.4233L65.3653 33.8029C67.2697 35.4353 68.5232 37.7287 68.667 40.3185C68.8131 42.9844 67.7585 45.4669 65.8896 47.3132ZM38.7594 41.7946C38.7594 51.5678 47.527 59.4044 58.2276 59.4044C68.9285 59.4044 77.6955 51.5678 77.6952 41.7946C77.6952 32.0225 68.9285 24.1858 58.2276 24.1858C47.5272 24.1858 38.7594 32.0225 38.7594 41.7946Z" fill="#A03581" stroke="#1C1B1F"/>
</svg>
