<svg width="91" height="91" viewBox="0 0 91 91" fill="none" xmlns="http://www.w3.org/2000/svg">
<path d="M40.5 2.88675C43.594 1.10042 47.406 1.10042 50.5 2.88675L79.9042 19.8632C82.9982 21.6496 84.9042 24.9508 84.9042 28.5235V62.4765C84.9042 66.0492 82.9982 69.3504 79.9042 71.1367L50.5 88.1133C47.406 89.8996 43.594 89.8996 40.5 88.1133L11.0958 71.1367C8.00183 69.3504 6.09584 66.0492 6.09584 62.4765V28.5235C6.09584 24.9508 8.00183 21.6496 11.0958 19.8632L40.5 2.88675Z" fill="#A03581"/>
<path fill-rule="evenodd" clip-rule="evenodd" d="M83.472 67.6336C82.613 69.0608 81.3969 70.2751 79.9043 71.1368L50.5002 88.1133C47.4062 89.8996 43.5942 89.8996 40.5002 88.1133L11.096 71.1368C9.60344 70.2751 8.38735 69.0608 7.52832 67.6336C7.84104 67.3151 8.19896 67.0359 8.59601 66.8067L43.0002 46.9434C44.5472 46.0503 46.4532 46.0503 48.0002 46.9434L82.4043 66.8067C82.8014 67.0359 83.1593 67.3151 83.472 67.6336Z" fill="#8C3273"/>
<path d="M71.8273 60.661C68.5103 66.534 63.3249 71.1292 57.0956 73.7159C50.8664 76.3026 43.9511 76.7322 37.4497 74.9364C30.9482 73.1405 25.2338 69.2224 21.2155 63.8051C17.1971 58.3878 15.1055 51.7824 15.2733 45.0396C15.441 38.2967 17.8586 31.8036 22.1414 26.5928C26.4242 21.3821 32.3263 17.7529 38.909 16.2827C45.4918 14.8124 52.3771 15.5853 58.47 18.4786C64.5629 21.3719 69.5134 26.2194 72.5342 32.25L58.7745 39.1423C57.2912 36.1811 54.8604 33.8009 51.8686 32.3802C48.8769 30.9595 45.496 30.58 42.2637 31.3019C39.0314 32.0239 36.1333 33.8059 34.0303 36.3645C31.9273 38.9231 30.7402 42.1114 30.6579 45.4224C30.5755 48.7333 31.6025 51.9767 33.5757 54.6367C35.5488 57.2968 38.3547 59.2207 41.5471 60.1025C44.7395 60.9843 48.1351 60.7734 51.1938 59.5032C54.2525 58.2331 56.7987 55.9767 58.4274 53.0929L71.8273 60.661Z" fill="#1C1B1F"/>
<rect x="64.6528" y="39.1807" width="2.91667" height="13.125" fill="#1C1B1F"/>
<rect x="70.4861" y="39.1807" width="2.91667" height="13.125" fill="#1C1B1F"/>
<rect x="62.6111" y="41.4166" width="13.125" height="2.91667" fill="#1C1B1F"/>
<rect x="62.6111" y="47.25" width="13.125" height="2.91667" fill="#1C1B1F"/>
</svg>
