<svg width="85" height="85" viewBox="0 0 85 85" fill="none" xmlns="http://www.w3.org/2000/svg">
<path d="M74.8159 55.8583V60.2464C74.8164 60.4573 74.7497 60.6629 74.6255 60.8334C74.5014 61.0039 74.3262 61.1304 74.1253 61.1947L67.219 63.4286C67.0701 63.4781 66.9115 63.4909 66.7565 63.4659C66.6016 63.4409 66.455 63.3789 66.3292 63.2852C66.2029 63.1939 66.0998 63.0743 66.0283 62.9358C65.9568 62.7974 65.9188 62.6441 65.9175 62.4883V57.707L59.4415 58.9395V63.8031C59.4411 64.044 59.3534 64.2766 59.1947 64.4578C59.036 64.639 58.817 64.7565 58.5783 64.7886L49.215 66.0716C49.1725 66.0716 49.1247 66.0716 49.0795 66.0716C48.9484 66.0726 48.8183 66.0477 48.6969 65.9983C48.5754 65.9488 48.465 65.8758 48.3719 65.7834C48.2788 65.6911 48.2049 65.5812 48.1545 65.4602C48.104 65.3391 48.0781 65.2093 48.0781 65.0781V59.917L43.2464 59.9383H42.5372L37.7054 59.917V65.0781C37.7058 65.2092 37.6803 65.339 37.6304 65.4601C37.5805 65.5813 37.5072 65.6914 37.4146 65.7842C37.3221 65.877 37.2122 65.9506 37.0911 66.0008C36.9701 66.051 36.8404 66.0769 36.7093 66.0769C36.6642 66.0769 36.619 66.0769 36.5712 66.0769L27.2079 64.7939C26.9697 64.7612 26.7513 64.6434 26.5931 64.4623C26.435 64.2812 26.3476 64.0489 26.3473 63.8084V58.9263L19.8687 57.6938V62.475C19.8677 62.6306 19.8302 62.7838 19.7591 62.9222C19.688 63.0606 19.5855 63.1804 19.4597 63.2719C19.3332 63.3655 19.1862 63.4273 19.0309 63.4523C18.8756 63.4773 18.7165 63.4646 18.5672 63.4153L11.6609 61.1814C11.4605 61.1167 11.2859 60.9899 11.1623 60.8195C11.0386 60.649 10.9723 60.4437 10.9729 60.2331V55.8583L6.70169 54.4213C6.48611 55.3264 6.37559 56.2533 6.37231 57.1838C6.37231 68.6508 22.5276 77.5041 42.4973 77.5678H42.5478C62.5148 77.5041 78.6728 68.6535 78.6728 57.1838C78.6732 56.3356 78.5842 55.4898 78.4072 54.6603L74.8159 55.8583Z" fill="#A03581"/>
<path d="M9.85734 35.522V53.3906L12.2666 54.2034C12.4646 54.2693 12.6368 54.3958 12.7589 54.5651C12.881 54.7343 12.9466 54.9377 12.9466 55.1464V59.5292L17.8739 61.123V56.4905C17.8741 56.3439 17.9066 56.1992 17.9691 56.0666C18.0315 55.9341 18.1223 55.8168 18.2351 55.7233C18.348 55.6297 18.48 55.5622 18.6218 55.5254C18.7637 55.4886 18.9119 55.4834 19.0559 55.5103L27.5267 57.128C27.7546 57.1707 27.9604 57.2919 28.1083 57.4704C28.2563 57.6489 28.3371 57.8736 28.3369 58.1055V62.9345L35.708 63.9413V58.9209C35.7076 58.7898 35.7332 58.6599 35.7833 58.5387C35.8334 58.4175 35.907 58.3075 35.9999 58.2149C36.0927 58.1223 36.203 58.049 36.3243 57.9992C36.4456 57.9494 36.5756 57.9241 36.7067 57.9248L42.8878 57.9488L49.0663 57.9248C49.1976 57.9238 49.3279 57.9488 49.4495 57.9984C49.5711 58.048 49.6817 58.1213 49.7748 58.2139C49.8679 58.3066 49.9418 58.4167 49.992 58.5381C50.0423 58.6595 50.068 58.7896 50.0677 58.9209V63.9413L57.4388 62.9345V58.1028C57.4374 57.8727 57.5162 57.6493 57.6616 57.4709C57.807 57.2925 58.0099 57.1704 58.2356 57.1253L66.7064 55.5077C66.8506 55.4808 66.9989 55.486 67.1409 55.5228C67.2829 55.5596 67.4151 55.6271 67.5281 55.7206C67.6411 55.8141 67.7322 55.9313 67.7949 56.0638C67.8576 56.1964 67.8905 56.3411 67.8911 56.4878V61.1123L72.8184 59.5186V55.1438C72.8182 54.9354 72.8835 54.7322 73.005 54.563C73.1266 54.3938 73.2983 54.2671 73.4958 54.2008L75.1373 53.6483V35.522H75.1825C76.8031 33.4449 78.3071 31.2794 79.6875 29.0355C77.7901 25.8906 75.5553 22.9621 73.023 20.3017C70.7439 21.4529 68.5345 22.7372 66.4062 24.148C65.3343 23.1453 64.1996 22.212 63.0089 21.3536C61.8346 20.4976 60.6154 19.7049 59.3566 18.9789C59.7096 16.273 59.9153 13.5498 59.9728 10.8216C56.8218 9.28849 53.4929 8.15181 50.0623 7.4375C48.6998 9.75572 47.4714 12.1503 46.3834 14.6094C45.1068 14.4076 43.8164 14.3045 42.5239 14.3012H42.4761C41.1827 14.3044 39.8914 14.4074 38.6139 14.6094C37.5268 12.1499 36.2984 9.75526 34.935 7.4375C31.5051 8.15268 28.1772 9.29026 25.0272 10.8242C25.0836 13.5525 25.2893 16.2757 25.6434 18.9816C24.3835 19.7072 23.1635 20.4999 21.9884 21.3562C20.799 22.2141 19.6652 23.1466 18.5938 24.148C16.4662 22.7376 14.2577 21.4533 11.9797 20.3017C9.44638 22.9619 7.21077 25.8905 5.3125 29.0355C6.69114 31.2802 8.19335 33.4466 9.81219 35.5247L9.85734 35.522Z" fill="#A03581"/>
<path d="M33.1022 44.0937C33.1027 45.5327 32.6765 46.9395 31.8775 48.1362C31.0785 49.333 29.9426 50.2659 28.6134 50.817C27.2842 51.3682 25.8214 51.5128 24.41 51.2326C22.9986 50.9524 21.702 50.2599 20.6841 49.2428C19.6662 48.2257 18.9728 46.9296 18.6916 45.5184C18.4103 44.1072 18.5539 42.6443 19.1041 41.3146C19.6542 39.985 20.5863 38.8484 21.7825 38.0485C22.9787 37.2487 24.3851 36.8214 25.8241 36.8209C26.7795 36.8206 27.7257 37.0084 28.6085 37.3737C29.4913 37.739 30.2936 38.2746 30.9694 38.95C31.6452 39.6253 32.1814 40.4272 32.5474 41.3097C32.9133 42.1923 33.1019 43.1383 33.1022 44.0937Z" fill="#1C1B1F"/>
<path d="M31.3439 44.5294C31.3439 45.485 31.0605 46.4191 30.5296 47.2137C29.9987 48.0083 29.244 48.6276 28.3612 48.9933C27.4783 49.359 26.5068 49.4547 25.5695 49.2682C24.6323 49.0818 23.7713 48.6216 23.0956 47.9459C22.4199 47.2702 21.9597 46.4092 21.7733 45.472C21.5868 44.5347 21.6825 43.5632 22.0482 42.6803C22.4139 41.7975 23.0332 41.0428 23.8278 40.5119C24.6224 39.981 25.5565 39.6976 26.5121 39.6976C27.1468 39.6969 27.7755 39.8214 28.362 40.064C28.9485 40.3066 29.4814 40.6624 29.9302 41.1113C30.379 41.5601 30.7349 42.093 30.9775 42.6795C31.2201 43.266 31.3446 43.8946 31.3439 44.5294Z" fill="#8C3273"/>
<path d="M42.941 52.0359C42.3489 52.0633 41.77 51.8552 41.3309 51.457C40.8919 51.0587 40.6284 50.5029 40.5981 49.9109V43.2092C40.6537 42.6263 40.9246 42.0851 41.3578 41.6912C41.791 41.2973 42.3555 41.0791 42.941 41.0791C43.5265 41.0791 44.0909 41.2973 44.5241 41.6912C44.9574 42.0851 45.2282 42.6263 45.2838 43.2092V49.9082C45.2528 50.5004 44.9888 51.0563 44.5493 51.4545C44.1098 51.8526 43.5307 52.0607 42.9383 52.0332" fill="#1C1B1F"/>
<path d="M52.7822 44.0937C52.7817 45.5327 53.2079 46.9395 54.0069 48.1362C54.8059 49.333 55.9418 50.2659 57.271 50.817C58.6003 51.3682 60.0631 51.5128 61.4745 51.2326C62.8859 50.9524 64.1825 50.2599 65.2004 49.2428C66.2182 48.2257 66.9116 46.9296 67.1928 45.5184C67.4741 44.1072 67.3305 42.6443 66.7804 41.3146C66.2302 39.985 65.2981 38.8484 64.1019 38.0485C62.9058 37.2487 61.4993 36.8214 60.0604 36.8209C59.1049 36.8206 58.1588 37.0084 57.2759 37.3737C56.3931 37.739 55.5909 38.2746 54.915 38.95C54.2392 39.6253 53.703 40.4272 53.3371 41.3097C52.9711 42.1923 52.7826 43.1383 52.7822 44.0937Z" fill="#1C1B1F"/>
<path d="M54.5354 44.5294C54.5359 45.4845 54.8197 46.4179 55.3507 47.2118C55.8818 48.0056 56.6363 48.6242 57.5189 48.9892C58.4015 49.3542 59.3725 49.4493 60.3092 49.2624C61.2458 49.0756 62.106 48.6152 62.781 47.9395C63.456 47.2638 63.9154 46.403 64.1013 45.4662C64.2871 44.5293 64.1909 43.5584 63.8249 42.6762C63.4589 41.794 62.8396 41.0402 62.0451 40.51C61.2507 39.9798 60.3169 39.6971 59.3618 39.6976C58.7275 39.6976 58.0995 39.8226 57.5136 40.0655C56.9277 40.3084 56.3954 40.6644 55.9471 41.1131C55.4989 41.5619 55.1435 42.0946 54.9013 42.6807C54.659 43.2669 54.5347 43.8951 54.5354 44.5294Z" fill="#8C3273"/>
</svg>
