<svg width="81" height="81" viewBox="0 0 81 81" fill="none" xmlns="http://www.w3.org/2000/svg">
<rect width="81" height="81" rx="7" fill="#A03581"/>
<path d="M39.6591 40.9091H43.1818V61.7045C43.1818 63.5606 42.8409 65.1373 42.1591 66.4347C41.4773 67.732 40.5161 68.7169 39.2756 69.3892C38.035 70.0616 36.572 70.3977 34.8864 70.3977C33.2955 70.3977 31.8797 70.1089 30.6392 69.5312C29.3987 68.9441 28.4233 68.1108 27.7131 67.0312C27.0028 65.9517 26.6477 64.6686 26.6477 63.1818H30.1136C30.1136 64.0057 30.3172 64.7254 30.7244 65.3409C31.1411 65.947 31.7093 66.4205 32.429 66.7614C33.1487 67.1023 33.9678 67.2727 34.8864 67.2727C35.8996 67.2727 36.7614 67.0597 37.4716 66.6335C38.1818 66.2074 38.7216 65.5824 39.0909 64.7585C39.4697 63.9252 39.6591 62.9072 39.6591 61.7045V40.9091ZM66.1506 48.1818C65.9801 46.7424 65.2888 45.625 64.0767 44.8295C62.8646 44.0341 61.3778 43.6364 59.6165 43.6364C58.3286 43.6364 57.2017 43.8447 56.2358 44.2614C55.2794 44.678 54.5313 45.2509 53.9915 45.9801C53.4612 46.7093 53.196 47.5379 53.196 48.4659C53.196 49.2424 53.3807 49.91 53.75 50.4688C54.1288 51.018 54.6117 51.4773 55.1989 51.8466C55.786 52.2064 56.4015 52.5047 57.0455 52.7415C57.6894 52.9687 58.2812 53.1534 58.821 53.2955L61.7756 54.0909C62.5331 54.2898 63.3759 54.5644 64.304 54.9148C65.2415 55.2652 66.1364 55.7434 66.9886 56.3494C67.8504 56.946 68.5606 57.7131 69.1193 58.6506C69.678 59.5881 69.9574 60.7386 69.9574 62.1023C69.9574 63.6742 69.5455 65.0947 68.7216 66.3636C67.9072 67.6326 66.714 68.6411 65.142 69.3892C63.5795 70.1373 61.6809 70.5114 59.446 70.5114C57.3627 70.5114 55.5587 70.1752 54.0341 69.5028C52.5189 68.8305 51.3258 67.893 50.4545 66.6903C49.5928 65.4877 49.1051 64.0909 48.9915 62.5H52.6278C52.7225 63.5985 53.0919 64.5076 53.7358 65.2273C54.3892 65.9375 55.2131 66.4678 56.2074 66.8182C57.2112 67.1591 58.2907 67.3295 59.446 67.3295C60.7907 67.3295 61.9981 67.1117 63.0682 66.6761C64.1383 66.2311 64.9858 65.6155 65.6108 64.8295C66.2358 64.0341 66.5483 63.1061 66.5483 62.0455C66.5483 61.0795 66.2784 60.2936 65.7386 59.6875C65.1989 59.0814 64.4886 58.589 63.608 58.2102C62.7273 57.8314 61.7756 57.5 60.7528 57.2159L57.1733 56.1932C54.9006 55.5398 53.1013 54.607 51.7756 53.3949C50.4498 52.1828 49.7869 50.5966 49.7869 48.6364C49.7869 47.0076 50.2273 45.5871 51.108 44.375C51.9981 43.1534 53.1913 42.2064 54.6875 41.5341C56.1932 40.8523 57.8741 40.5114 59.7301 40.5114C61.6051 40.5114 63.2718 40.8475 64.7301 41.5199C66.1884 42.1828 67.3438 43.0919 68.196 44.2472C69.0578 45.4025 69.5123 46.714 69.5597 48.1818H66.1506Z" fill="#1C1B1F"/>
<path d="M39.6591 40.9091V39.9091H38.6591V40.9091H39.6591ZM43.1818 40.9091H44.1818V39.9091H43.1818V40.9091ZM42.1591 66.4347L43.0443 66.8999L43.0443 66.8999L42.1591 66.4347ZM39.2756 69.3892L39.7521 70.2684L39.7521 70.2684L39.2756 69.3892ZM30.6392 69.5312L30.2114 70.4351L30.2171 70.4378L30.6392 69.5312ZM27.7131 67.0312L26.8777 67.5809L26.8777 67.5809L27.7131 67.0312ZM26.6477 63.1818V62.1818H25.6477V63.1818H26.6477ZM30.1136 63.1818H31.1136V62.1818H30.1136V63.1818ZM30.7244 65.3409L29.8904 65.8926L29.8953 65.9001L29.9004 65.9074L30.7244 65.3409ZM32.429 66.7614L32.8571 65.8576L32.8571 65.8576L32.429 66.7614ZM37.4716 66.6335L36.9571 65.776L36.9571 65.776L37.4716 66.6335ZM39.0909 64.7585L38.1805 64.3447L38.1784 64.3495L39.0909 64.7585ZM39.6591 41.9091H43.1818V39.9091H39.6591V41.9091ZM42.1818 40.9091V61.7045H44.1818V40.9091H42.1818ZM42.1818 61.7045C42.1818 63.4407 41.8629 64.8488 41.2739 65.9694L43.0443 66.8999C43.8189 65.4259 44.1818 63.6805 44.1818 61.7045H42.1818ZM41.2739 65.9694C40.6805 67.0985 39.8584 67.9359 38.7991 68.51L39.7521 70.2684C41.1738 69.4978 42.274 68.3655 43.0443 66.8999L41.2739 65.9694ZM38.7991 68.51C37.7308 69.089 36.4378 69.3977 34.8864 69.3977V71.3977C36.7061 71.3977 38.3393 71.0341 39.7521 70.2684L38.7991 68.51ZM34.8864 69.3977C33.4177 69.3977 32.1498 69.1316 31.0613 68.6247L30.2171 70.4378C31.6096 71.0862 33.1732 71.3977 34.8864 71.3977V69.3977ZM31.067 68.6274C29.9815 68.1136 29.1516 67.3983 28.5485 66.4816L26.8777 67.5809C27.695 68.8233 28.8158 69.7746 30.2114 70.4351L31.067 68.6274ZM28.5485 66.4816C27.9611 65.5888 27.6477 64.5034 27.6477 63.1818H25.6477C25.6477 64.8337 26.0446 66.3146 26.8777 67.5809L28.5485 66.4816ZM26.6477 64.1818H30.1136V62.1818H26.6477V64.1818ZM29.1136 63.1818C29.1136 64.1782 29.3626 65.0948 29.8904 65.8926L31.5585 64.7892C31.2719 64.356 31.1136 63.8331 31.1136 63.1818H29.1136ZM29.9004 65.9074C30.4252 66.6708 31.1354 67.2551 32.0009 67.6651L32.8571 65.8576C32.2832 65.5858 31.857 65.2231 31.5485 64.7744L29.9004 65.9074ZM32.0009 67.6651C32.8735 68.0784 33.8424 68.2727 34.8864 68.2727V66.2727C34.0932 66.2727 33.4239 66.1261 32.8571 65.8576L32.0009 67.6651ZM34.8864 68.2727C36.0404 68.2727 37.0891 68.0292 37.9861 67.491L36.9571 65.776C36.4336 66.0901 35.7588 66.2727 34.8864 66.2727V68.2727ZM37.9861 67.491C38.8876 66.9501 39.5583 66.1605 40.0034 65.1676L38.1784 64.3495C37.8849 65.0043 37.476 65.4647 36.9571 65.776L37.9861 67.491ZM40.0013 65.1723C40.4546 64.175 40.6591 63.0072 40.6591 61.7045H38.6591C38.6591 62.8072 38.4848 63.6753 38.1805 64.3447L40.0013 65.1723ZM40.6591 61.7045V40.9091H38.6591V61.7045H40.6591ZM66.1506 48.1818L65.1575 48.2994L65.262 49.1818H66.1506V48.1818ZM64.0767 44.8295L63.528 45.6656L63.528 45.6656L64.0767 44.8295ZM56.2358 44.2614L55.8397 43.3431L55.8364 43.3446L56.2358 44.2614ZM53.9915 45.9801L53.1877 45.3851L53.1827 45.3919L53.9915 45.9801ZM53.75 50.4688L52.9158 51.0202L52.9212 51.0284L52.9268 51.0365L53.75 50.4688ZM55.1989 51.8466L54.6664 52.6931L54.6763 52.6992L55.1989 51.8466ZM57.0455 52.7415L56.7004 53.6801L56.7126 53.6845L57.0455 52.7415ZM58.821 53.2955L59.081 52.3298L59.0755 52.3284L58.821 53.2955ZM61.7756 54.0909L61.5156 55.0565L61.5217 55.0581L61.7756 54.0909ZM64.304 54.9148L63.9508 55.8503L63.9539 55.8515L64.304 54.9148ZM66.9886 56.3494L66.4091 57.1645L66.4194 57.1716L66.9886 56.3494ZM69.1193 58.6506L69.9783 58.1386L69.9783 58.1386L69.1193 58.6506ZM68.7216 66.3636L67.8829 65.8191L67.88 65.8235L68.7216 66.3636ZM65.142 69.3892L64.7123 68.4862L64.7102 68.4873L65.142 69.3892ZM54.0341 69.5028L53.6285 70.4169L53.6306 70.4178L54.0341 69.5028ZM50.4545 66.6903L49.6417 67.2728L49.6447 67.277L50.4545 66.6903ZM48.9915 62.5V61.5H47.9175L47.994 62.5712L48.9915 62.5ZM52.6278 62.5L53.6241 62.4141L53.5453 61.5H52.6278V62.5ZM53.7358 65.2273L52.9905 65.8941L52.9999 65.9043L53.7358 65.2273ZM56.2074 66.8182L55.875 67.7614L55.8858 67.7651L56.2074 66.8182ZM63.0682 66.6761L63.4452 67.6024L63.4522 67.5995L63.0682 66.6761ZM65.6108 64.8295L66.3935 65.4519L66.3971 65.4474L65.6108 64.8295ZM65.7386 59.6875L66.4854 59.0224L66.4854 59.0224L65.7386 59.6875ZM63.608 58.2102L63.2128 59.1289L63.2128 59.1289L63.608 58.2102ZM60.7528 57.2159L60.4781 58.1775L60.4852 58.1794L60.7528 57.2159ZM57.1733 56.1932L56.897 57.1543L56.8986 57.1547L57.1733 56.1932ZM51.7756 53.3949L51.1008 54.1329L51.1008 54.1329L51.7756 53.3949ZM51.108 44.375L50.2998 43.7861L50.2989 43.7872L51.108 44.375ZM54.6875 41.5341L55.0974 42.4462L55.1 42.445L54.6875 41.5341ZM64.7301 41.5199L64.3114 42.428L64.3163 42.4303L64.7301 41.5199ZM68.196 44.2472L67.3913 44.8408L67.3944 44.8451L68.196 44.2472ZM69.5597 48.1818V49.1818H70.5924L70.5591 48.1496L69.5597 48.1818ZM67.1436 48.0642C66.9384 46.3314 66.0844 44.951 64.6254 43.9935L63.528 45.6656C64.4933 46.299 65.0218 47.1535 65.1575 48.2994L67.1436 48.0642ZM64.6254 43.9935C63.2182 43.07 61.5305 42.6364 59.6165 42.6364V44.6364C61.2252 44.6364 62.511 44.9982 63.528 45.6656L64.6254 43.9935ZM59.6165 42.6364C58.2221 42.6364 56.9554 42.8619 55.8397 43.3432L56.6319 45.1796C57.448 44.8275 58.4351 44.6364 59.6165 44.6364V42.6364ZM55.8364 43.3446C54.7437 43.8206 53.8466 44.4952 53.1877 45.3851L54.7952 46.5751C55.2159 46.0067 55.815 45.5355 56.6352 45.1781L55.8364 43.3446ZM53.1827 45.3919C52.5243 46.2973 52.196 47.3332 52.196 48.4659H54.196C54.196 47.7426 54.3981 47.1212 54.8002 46.5683L53.1827 45.3919ZM52.196 48.4659C52.196 49.4065 52.4219 50.2731 52.9158 51.0202L54.5842 49.9173C54.3394 49.547 54.196 49.0784 54.196 48.4659H52.196ZM52.9268 51.0365C53.3856 51.7018 53.9691 52.2544 54.6664 52.6931L55.7313 51.0001C55.2544 50.7001 54.8719 50.3342 54.5732 49.901L52.9268 51.0365ZM54.6763 52.6992C55.3194 53.0933 55.9944 53.4205 56.7004 53.6801L57.3905 51.8029C56.8087 51.589 56.2526 51.3195 55.7214 50.994L54.6763 52.6992ZM56.7126 53.6845C57.3769 53.9189 57.9953 54.1122 58.5665 54.2625L59.0755 52.3284C58.5672 52.1946 58.0019 52.0186 57.3783 51.7985L56.7126 53.6845ZM58.561 54.2611L61.5156 55.0565L62.0355 53.1253L59.081 52.3298L58.561 54.2611ZM61.5217 55.0581C62.2382 55.2462 63.0471 55.5092 63.9508 55.8503L64.6572 53.9792C63.7047 53.6196 62.8281 53.3333 62.0295 53.1237L61.5217 55.0581ZM63.9539 55.8515C64.8064 56.1701 65.6245 56.6064 66.4091 57.1644L67.5682 55.5345C66.6482 54.8803 65.6766 54.3602 64.6541 53.9781L63.9539 55.8515ZM66.4194 57.1716C67.1586 57.6834 67.7718 58.3428 68.2603 59.1625L69.9783 58.1386C69.3494 57.0834 68.5422 56.2087 67.5578 55.5272L66.4194 57.1716ZM68.2603 59.1625C68.7063 59.9109 68.9574 60.8743 68.9574 62.1023H70.9574C70.9574 60.603 70.6497 59.2652 69.9783 58.1386L68.2603 59.1625ZM68.9574 62.1023C68.9574 63.4889 68.5972 64.7188 67.8829 65.8191L69.5603 66.9082C70.4937 65.4706 70.9574 63.8596 70.9574 62.1023H68.9574ZM67.88 65.8235C67.1812 66.9124 66.1424 67.8057 64.7123 68.4862L65.5718 70.2922C67.2856 69.4765 68.6332 68.3527 69.5632 66.9038L67.88 65.8235ZM64.7102 68.4873C63.3157 69.1549 61.5732 69.5114 59.446 69.5114V71.5114C61.7885 71.5114 63.8434 71.1197 65.5739 70.2912L64.7102 68.4873ZM59.446 69.5114C57.4679 69.5114 55.8075 69.192 54.4376 68.5879L53.6306 70.4178C55.3099 71.1584 57.2574 71.5114 59.446 71.5114V69.5114ZM54.4397 68.5888C53.0666 67.9795 52.0204 67.1474 51.2644 66.1037L49.6447 67.277C50.6311 68.6386 51.9712 69.6815 53.6285 70.4169L54.4397 68.5888ZM51.2674 66.1079C50.5216 65.067 50.0905 63.8504 49.9889 62.4288L47.994 62.5712C48.1197 64.3314 48.664 65.9083 49.6417 67.2728L51.2674 66.1079ZM48.9915 63.5H52.6278V61.5H48.9915V63.5ZM51.6315 62.5859C51.7421 63.8682 52.1823 64.9907 52.9906 65.8941L54.481 64.5605C54.0015 64.0245 53.703 63.3288 53.6241 62.4141L51.6315 62.5859ZM52.9999 65.9043C53.774 66.7458 54.741 67.3617 55.875 67.7613L56.5397 65.875C55.6851 65.5739 55.0044 65.1292 54.4717 64.5502L52.9999 65.9043ZM55.8858 67.7651C57.002 68.1442 58.1911 68.3295 59.446 68.3295V66.3295C58.3903 66.3295 57.4203 66.174 56.529 65.8713L55.8858 67.7651ZM59.446 68.3295C60.8991 68.3295 62.2375 68.094 63.4452 67.6023L62.6911 65.7499C61.7587 66.1295 60.6824 66.3295 59.446 66.3295V68.3295ZM63.4522 67.5995C64.6542 67.0995 65.648 66.3895 66.3935 65.4519L64.8281 64.2072C64.3236 64.8415 63.6223 65.3626 62.6841 65.7528L63.4522 67.5995ZM66.3971 65.4474C67.1676 64.4668 67.5483 63.3185 67.5483 62.0455H65.5483C65.5483 62.8937 65.304 63.6014 64.8245 64.2117L66.3971 65.4474ZM67.5483 62.0455C67.5483 60.8835 67.2183 59.8453 66.4854 59.0224L64.9919 60.3526C65.3385 60.7418 65.5483 61.2756 65.5483 62.0455H67.5483ZM66.4854 59.0224C65.8323 58.2891 64.994 57.7178 64.0031 57.2916L63.2128 59.1289C63.9833 59.4602 64.5654 59.8738 64.9919 60.3526L66.4854 59.0224ZM64.0031 57.2916C63.0768 56.8932 62.0821 56.5473 61.0205 56.2524L60.4852 58.1794C61.469 58.4527 62.3777 58.7697 63.2128 59.1289L64.0031 57.2916ZM61.0276 56.2544L57.448 55.2317L56.8986 57.1547L60.4781 58.1774L61.0276 56.2544ZM57.4496 55.2321C55.2801 54.6084 53.6321 53.7373 52.4503 52.6569L51.1008 54.1329C52.5706 55.4767 54.521 56.4712 56.897 57.1543L57.4496 55.2321ZM52.4503 52.6569C51.352 51.6527 50.7869 50.3444 50.7869 48.6364H48.7869C48.7869 50.8487 49.5476 52.7129 51.1008 54.1329L52.4503 52.6569ZM50.7869 48.6364C50.7869 47.1994 51.1714 45.989 51.917 44.9628L50.2989 43.7872C49.2832 45.1852 48.7869 46.8158 48.7869 48.6364H50.7869ZM51.9161 44.9639C52.6953 43.8947 53.7459 43.0536 55.0974 42.4462L54.2776 40.622C52.6367 41.3593 51.301 42.4121 50.2998 43.7861L51.9161 44.9639ZM55.1 42.445C56.461 41.8287 57.9988 41.5114 59.7301 41.5114V39.5114C57.7493 39.5114 55.9254 39.8758 54.275 40.6231L55.1 42.445ZM59.7301 41.5114C61.4846 41.5114 63.0046 41.8255 64.3114 42.428L65.1488 40.6118C63.539 39.8696 61.7256 39.5114 59.7301 39.5114V41.5114ZM64.3163 42.4303C65.6378 43.0309 66.6515 43.838 67.3913 44.8408L69.0007 43.6535C68.036 42.3457 66.7391 41.3346 65.1439 40.6095L64.3163 42.4303ZM67.3944 44.8451C68.1315 45.8332 68.5193 46.9465 68.5602 48.2141L70.5591 48.1496C70.5053 46.4816 69.984 44.9717 68.9976 43.6493L67.3944 44.8451ZM69.5597 47.1818H66.1506V49.1818H69.5597V47.1818Z" fill="#1C1B1F"/>
</svg>
