<svg width="80" height="36" viewBox="0 0 80 36" fill="none" xmlns="http://www.w3.org/2000/svg">
<path fill-rule="evenodd" clip-rule="evenodd" d="M15.7916 26.5249C11.9475 26.5249 10.0255 24.0095 9.28366 21.3781C10.1199 25.655 14.6451 29.8233 28.8749 31.6718C42.3292 33.4297 51.0963 29.0186 54.0637 26.9599C54.0637 26.9599 56.0633 26.0175 54.8628 27.4746C54.8628 27.4746 46.3991 35.8473 29.7415 35.9561C13.1176 36.0416 -0.100583 27.0759 0.00057677 17.9782C-0.0793394 8.91684 13.1176 -0.0720556 29.7415 0.000435524C46.3654 0.0859751 54.8628 8.48189 54.8628 8.48189C56.0633 9.93534 54.0637 8.99659 54.0637 8.99659C51.1064 6.94509 42.3629 2.90733 28.8749 4.28467C15.5893 5.65475 11.2731 10.4827 9.82318 13.7085C9.27018 14.959 9.01727 16.1406 8.95658 17.3258C9.31401 14.2232 11.118 10.5841 15.768 10.5841C21.0283 10.5841 22.6469 15.2961 22.6469 18.5582C22.6469 21.8203 21.035 26.4959 15.768 26.4959L15.7916 26.5249ZM69.4062 23.3897H76.42V26.1263H66.4389V11.0118H69.3894V23.3716L69.4062 23.3897ZM58.5821 17.9891H64.4831V26.1444H62.5173L62.2219 24.2523C61.4733 25.1766 60.3909 26.5467 57.8046 26.5467C54.3988 26.5467 51.2966 23.937 51.2966 18.6452C51.2966 14.5132 53.4412 10.6349 58.2092 10.6349C62.5253 10.6349 64.2451 13.6433 64.4137 15.7093H61.4632C61.4632 15.1221 60.4583 13.2264 58.3744 13.2264C56.2703 13.2264 54.328 14.785 54.328 18.6633C54.328 22.7953 56.4322 23.8464 58.4419 23.8464C59.0893 23.8464 61.2541 23.5727 61.8476 20.5227H58.5633V17.9782L58.5821 17.9891ZM15.7579 12.4435C12.6894 12.4435 10.8348 15.0315 10.8348 18.6053C10.8348 22.161 12.6826 24.767 15.7579 24.767C18.8264 24.767 20.681 22.1791 20.681 18.6053C20.681 15.0496 18.8331 12.4435 15.7579 12.4435ZM23.7158 16.4668H25.1489V17.8333H25.1833C25.5474 17.2787 26.2353 16.1877 27.8775 16.1877C30.2783 16.1877 31.9913 18.3624 31.9913 21.0809C31.9913 23.3897 30.747 26.409 27.6752 26.409C26.4646 26.409 25.6722 25.8 25.2743 25.115H25.2396V29.9719H23.7188V16.4885L23.7158 16.4668ZM27.5598 25.0207C29.2189 25.0207 30.3417 23.4839 30.3417 21.36C30.3417 20.1204 29.873 17.6629 27.5261 17.6629C25.3343 17.6629 25.0915 20.1928 25.0915 21.7586C25.0915 24.3248 26.5955 25.0099 27.5598 25.0099V25.0207ZM41.1827 23.1179C41.1304 23.5782 40.7173 24.9483 39.5776 25.7602C39.1629 26.0556 38.5761 26.4271 37.1262 26.4271C34.5871 26.4271 33.0798 24.3756 33.0798 21.5702C33.0798 18.5763 34.4286 16.2058 37.4297 16.2058C40.0362 16.2058 41.3074 18.4241 41.3074 21.8601H34.6983C34.6983 23.8754 35.5784 25.0389 37.3251 25.0389C38.7582 25.0389 39.6046 23.8573 39.6552 23.136H41.1759L41.1827 23.1179ZM39.5709 20.5517C39.4845 19.0547 38.8965 17.6702 37.0486 17.6702C35.6492 17.6702 34.5432 19.0547 34.5432 20.5517H39.5675H39.5709ZM49.6868 26.1335H48.1661V20.1892C48.1661 18.5074 47.7176 17.6593 46.2305 17.6593C45.3673 17.6593 43.8466 18.2501 43.8466 20.8743V26.1299H42.3258V16.4523H43.7589V17.8188H43.7936C44.1214 17.3004 44.9671 16.1732 46.5215 16.1732C47.9209 16.1732 49.6811 16.7821 49.6811 19.5368V26.0973" fill="#A03581"/>
<path fill-rule="evenodd" clip-rule="evenodd" d="M79.3657 25.6188C79.3657 25.8692 79.3077 26.1028 79.1914 26.3189C79.0752 26.535 78.9174 26.7057 78.7173 26.83C78.5172 26.9544 78.3008 27.0166 78.0689 27.0166C77.8378 27.0166 77.6229 26.9544 77.4221 26.83C77.2219 26.7057 77.0639 26.535 76.948 26.3189C76.832 26.1028 76.7737 25.8692 76.7737 25.6188C76.7737 25.3692 76.8316 25.1364 76.948 24.9195C77.0639 24.7026 77.2219 24.5319 77.4221 24.4075C77.6222 24.2831 77.8378 24.2209 78.0689 24.2209C78.3008 24.2209 78.5172 24.2832 78.7173 24.4075C78.9174 24.5319 79.0755 24.7026 79.1914 24.9195C79.3074 25.1364 79.3657 25.3692 79.3657 25.6188ZM79.1146 25.6188C79.1146 25.307 79.0127 25.0415 78.8081 24.8214C78.6036 24.6005 78.3577 24.4905 78.0697 24.4905C77.7809 24.4905 77.535 24.6005 77.3312 24.8214C77.1267 25.0423 77.0248 25.3078 77.0248 25.6188C77.0248 25.9298 77.1267 26.1961 77.3312 26.4162C77.5358 26.6371 77.7817 26.7471 78.0697 26.7471C78.3584 26.7471 78.6043 26.6371 78.8081 26.4162C79.012 26.1953 79.1146 25.9298 79.1146 25.6188ZM77.4826 24.8708H78.1022C78.2772 24.8708 78.405 24.9089 78.4832 24.9857C78.5615 25.062 78.6014 25.1643 78.6014 25.2927C78.6014 25.3931 78.5714 25.4792 78.5113 25.5526C78.4513 25.6259 78.3569 25.6794 78.2277 25.7121C78.2809 25.7341 78.32 25.7573 78.3451 25.7817C78.3802 25.816 78.417 25.8662 78.4552 25.934C78.4574 25.9389 78.532 26.0831 78.6789 26.3662H78.2713C78.1391 26.0815 78.0497 25.9117 78.0047 25.8559C77.9594 25.8004 77.9139 25.7721 77.8688 25.7721C77.8586 25.7721 77.8445 25.774 77.8264 25.7776V26.3661H77.4816L77.4826 24.8708ZM77.8275 25.5048H77.9766C78.0763 25.5048 78.1465 25.4874 78.1871 25.4526C78.2278 25.4177 78.2482 25.3729 78.2482 25.3179C78.2482 25.2629 78.2286 25.2182 78.1896 25.1831C78.1505 25.1482 78.084 25.1309 77.9902 25.1309H77.827L77.8275 25.5048Z" fill="#A03581"/>
</svg>
