<svg width="81" height="81" viewBox="0 0 81 81" fill="none" xmlns="http://www.w3.org/2000/svg">
<rect width="81" height="81" rx="18" fill="#A03581"/>
<path d="M40.1265 34.336C40.1265 37.12 39.1665 39.44 37.2465 41.296C35.3585 43.12 32.4625 44.032 28.5585 44.032H22.1265V58H17.7585V24.544H28.5585C32.3345 24.544 35.1985 25.456 37.1505 27.28C39.1345 29.104 40.1265 31.456 40.1265 34.336ZM28.5585 40.432C30.9905 40.432 32.7825 39.904 33.9345 38.848C35.0865 37.792 35.6625 36.288 35.6625 34.336C35.6625 30.208 33.2945 28.144 28.5585 28.144H22.1265V40.432H28.5585ZM54.8674 58.432C52.8514 58.432 51.0434 58.096 49.4434 57.424C47.8434 56.72 46.5794 55.76 45.6514 54.544C44.7234 53.296 44.2114 51.872 44.1154 50.272H48.6274C48.7554 51.584 49.3634 52.656 50.4514 53.488C51.5714 54.32 53.0274 54.736 54.8194 54.736C56.4834 54.736 57.7954 54.368 58.7554 53.632C59.7154 52.896 60.1954 51.968 60.1954 50.848C60.1954 49.696 59.6834 48.848 58.6594 48.304C57.6354 47.728 56.0514 47.168 53.9074 46.624C51.9554 46.112 50.3554 45.6 49.1074 45.088C47.8914 44.544 46.8354 43.76 45.9394 42.736C45.0754 41.68 44.6434 40.304 44.6434 38.608C44.6434 37.264 45.0434 36.032 45.8434 34.912C46.6434 33.792 47.7794 32.912 49.2514 32.272C50.7234 31.6 52.4034 31.264 54.2914 31.264C57.2034 31.264 59.5554 32 61.3474 33.472C63.1394 34.944 64.0994 36.96 64.2274 39.52H59.8594C59.7634 38.144 59.2034 37.04 58.1794 36.208C57.1874 35.376 55.8434 34.96 54.1474 34.96C52.5794 34.96 51.3314 35.296 50.4034 35.968C49.4754 36.64 49.0114 37.52 49.0114 38.608C49.0114 39.472 49.2834 40.192 49.8274 40.768C50.4034 41.312 51.1074 41.76 51.9394 42.112C52.8034 42.432 53.9874 42.8 55.4914 43.216C57.3794 43.728 58.9154 44.24 60.0994 44.752C61.2834 45.232 62.2914 45.968 63.1234 46.96C63.9874 47.952 64.4354 49.248 64.4674 50.848C64.4674 52.288 64.0674 53.584 63.2674 54.736C62.4674 55.888 61.3314 56.8 59.8594 57.472C58.4194 58.112 56.7554 58.432 54.8674 58.432Z" fill="#1C1B1F"/>
<path d="M37.2465 41.296L38.6361 42.7344L38.6365 42.734L37.2465 41.296ZM22.1265 44.032V42.032H20.1265V44.032H22.1265ZM22.1265 58V60H24.1265V58H22.1265ZM17.7585 58H15.7585V60H17.7585V58ZM17.7585 24.544V22.544H15.7585V24.544H17.7585ZM37.1505 27.28L35.785 28.7413L35.7909 28.7468L35.7969 28.7523L37.1505 27.28ZM33.9345 38.848L35.286 40.3223L35.286 40.3223L33.9345 38.848ZM22.1265 28.144V26.144H20.1265V28.144H22.1265ZM22.1265 40.432H20.1265V42.432H22.1265V40.432ZM38.1265 34.336C38.1265 36.6037 37.3684 38.3965 35.8565 39.858L38.6365 42.734C40.9646 40.4835 42.1265 37.6363 42.1265 34.336H38.1265ZM35.8569 39.8576C34.489 41.1791 32.1932 42.032 28.5585 42.032V46.032C32.7318 46.032 36.228 45.0609 38.6361 42.7344L35.8569 39.8576ZM28.5585 42.032H22.1265V46.032H28.5585V42.032ZM20.1265 44.032V58H24.1265V44.032H20.1265ZM22.1265 56H17.7585V60H22.1265V56ZM19.7585 58V24.544H15.7585V58H19.7585ZM17.7585 26.544H28.5585V22.544H17.7585V26.544ZM28.5585 26.544C32.0373 26.544 34.3326 27.3841 35.785 28.7413L38.516 25.8187C36.0644 23.5279 32.6317 22.544 28.5585 22.544V26.544ZM35.7969 28.7523C37.3382 30.1694 38.1265 31.9725 38.1265 34.336H42.1265C42.1265 30.9395 40.9308 28.0386 38.5041 25.8077L35.7969 28.7523ZM28.5585 42.432C31.2234 42.432 33.6065 41.8618 35.286 40.3223L32.5831 37.3737C31.9585 37.9462 30.7576 38.432 28.5585 38.432V42.432ZM35.286 40.3223C36.9499 38.797 37.6625 36.699 37.6625 34.336H33.6625C33.6625 35.877 33.2231 36.787 32.5831 37.3737L35.286 40.3223ZM37.6625 34.336C37.6625 31.8867 36.9473 29.7067 35.2006 28.1843C33.5065 26.7077 31.1725 26.144 28.5585 26.144V30.144C30.6805 30.144 31.8985 30.6123 32.5724 31.1997C33.1937 31.7413 33.6625 32.6573 33.6625 34.336H37.6625ZM28.5585 26.144H22.1265V30.144H28.5585V26.144ZM20.1265 28.144V40.432H24.1265V28.144H20.1265ZM22.1265 42.432H28.5585V38.432H22.1265V42.432ZM49.4434 57.424L48.6379 59.2546L48.6533 59.2614L48.6689 59.268L49.4434 57.424ZM45.6514 54.544L44.0465 55.7374L44.0539 55.7474L44.0615 55.7573L45.6514 54.544ZM44.1154 50.272V48.272H41.9918L42.119 50.3918L44.1154 50.272ZM48.6274 50.272L50.6179 50.0778L50.4417 48.272H48.6274V50.272ZM50.4514 53.488L49.2365 55.0767L49.2475 55.0852L49.2587 55.0935L50.4514 53.488ZM58.6594 48.304L57.6789 50.0472L57.6998 50.0589L57.7211 50.0702L58.6594 48.304ZM53.9074 46.624L53.4 48.5586L53.4077 48.5606L53.4155 48.5626L53.9074 46.624ZM49.1074 45.088L48.2906 46.9136L48.3193 46.9264L48.3483 46.9383L49.1074 45.088ZM45.9394 42.736L44.3915 44.0025L44.4124 44.0281L44.4342 44.053L45.9394 42.736ZM45.8434 34.912L44.2159 33.7495L44.2159 33.7495L45.8434 34.912ZM49.2514 32.272L50.0488 34.1061L50.0655 34.0989L50.082 34.0914L49.2514 32.272ZM64.2274 39.52V41.52H66.3299L66.2249 39.4201L64.2274 39.52ZM59.8594 39.52L57.8642 39.6592L57.9941 41.52H59.8594V39.52ZM58.1794 36.208L56.8942 37.7404L56.9061 37.7504L56.9182 37.7602L58.1794 36.208ZM50.4034 35.968L49.2304 34.3481L49.2304 34.3481L50.4034 35.968ZM49.8274 40.768L48.3734 42.1412L48.4126 42.1828L48.4541 42.222L49.8274 40.768ZM51.9394 42.112L51.1601 43.9539L51.202 43.9717L51.2447 43.9875L51.9394 42.112ZM55.4914 43.216L54.9582 45.1436L54.9679 45.1463L55.4914 43.216ZM60.0994 44.752L59.3056 46.5877L59.3267 46.5968L59.348 46.6055L60.0994 44.752ZM63.1234 46.96L61.591 48.2452L61.603 48.2595L61.6152 48.2736L63.1234 46.96ZM64.4674 50.848H66.4674V50.828L66.467 50.808L64.4674 50.848ZM63.2674 54.736L61.6246 53.5952L61.6246 53.5952L63.2674 54.736ZM59.8594 57.472L60.6717 59.2996L60.6808 59.2955L60.69 59.2914L59.8594 57.472ZM54.8674 56.432C53.0748 56.432 51.5362 56.1338 50.2178 55.58L48.6689 59.268C50.5505 60.0582 52.6279 60.432 54.8674 60.432V56.432ZM50.2489 55.5934C48.9136 55.0059 47.9365 54.2416 47.2413 53.3307L44.0615 55.7573C45.2223 57.2784 46.7732 58.4341 48.6379 59.2546L50.2489 55.5934ZM47.2563 53.3506C46.5678 52.4247 46.1852 51.3765 46.1118 50.1522L42.119 50.3918C42.2375 52.3675 42.8789 54.1673 44.0465 55.7374L47.2563 53.3506ZM44.1154 52.272H48.6274V48.272H44.1154V52.272ZM46.6368 50.4662C46.821 52.3544 47.7271 53.9225 49.2365 55.0767L51.6663 51.8993C50.9997 51.3895 50.6897 50.8136 50.6179 50.0778L46.6368 50.4662ZM49.2587 55.0935C50.8106 56.2463 52.7205 56.736 54.8194 56.736V52.736C53.3342 52.736 52.3322 52.3937 51.644 51.8825L49.2587 55.0935ZM54.8194 56.736C56.7606 56.736 58.5528 56.3074 59.9722 55.2192L57.5385 52.0448C57.0379 52.4286 56.2061 52.736 54.8194 52.736V56.736ZM59.9722 55.2192C61.3802 54.1397 62.1954 52.6454 62.1954 50.848H58.1954C58.1954 51.2906 58.0505 51.6523 57.5385 52.0448L59.9722 55.2192ZM62.1954 50.848C62.1954 49.9679 61.9967 49.098 61.5235 48.3143C61.0507 47.5312 60.374 46.9502 59.5977 46.5378L57.7211 50.0702C57.9688 50.2018 58.06 50.3168 58.0992 50.3817C58.138 50.446 58.1954 50.5761 58.1954 50.848H62.1954ZM59.6399 46.5608C58.3817 45.8531 56.5919 45.2418 54.3993 44.6854L53.4155 48.5626C55.5108 49.0942 56.8891 49.6029 57.6789 50.0472L59.6399 46.5608ZM54.4148 44.6894C52.5109 44.1901 51.0031 43.704 49.8665 43.2377L48.3483 46.9383C49.7076 47.496 51.3998 48.0339 53.4 48.5586L54.4148 44.6894ZM49.9241 43.2624C48.9773 42.8388 48.1546 42.2305 47.4445 41.419L44.4342 44.053C45.5161 45.2895 46.8054 46.2492 48.2906 46.9136L49.9241 43.2624ZM47.4873 41.4695C46.9812 40.851 46.6434 39.9577 46.6434 38.608H42.6434C42.6434 40.6503 43.1696 42.509 44.3915 44.0025L47.4873 41.4695ZM46.6434 38.608C46.6434 37.6915 46.9069 36.864 47.4708 36.0745L44.2159 33.7495C43.1799 35.2 42.6434 36.8365 42.6434 38.608H46.6434ZM47.4708 36.0745C48.0273 35.2954 48.8533 34.6259 50.0488 34.1061L48.4539 30.4379C46.7055 31.1981 45.2595 32.2886 44.2159 33.7495L47.4708 36.0745ZM50.082 34.0914C51.2533 33.5566 52.6426 33.264 54.2914 33.264V29.264C52.1642 29.264 50.1935 29.6434 48.4208 30.4526L50.082 34.0914ZM54.2914 33.264C56.8617 33.264 58.7274 33.9081 60.0779 35.0175L62.6169 31.9265C60.3833 30.0919 57.545 29.264 54.2914 29.264V33.264ZM60.0779 35.0175C61.3858 36.0918 62.1267 37.5568 62.2299 39.6199L66.2249 39.4201C66.072 36.3632 64.893 33.7962 62.6169 31.9265L60.0779 35.0175ZM64.2274 37.52H59.8594V41.52H64.2274V37.52ZM61.8545 39.3808C61.722 37.4808 60.9158 35.8544 59.4406 34.6558L56.9182 37.7602C57.491 38.2256 57.8048 38.8072 57.8642 39.6592L61.8545 39.3808ZM59.4646 34.6756C58.0135 33.4586 56.1658 32.96 54.1474 32.96V36.96C55.521 36.96 56.3612 37.2934 56.8942 37.7404L59.4646 34.6756ZM54.1474 32.96C52.3102 32.96 50.605 33.3527 49.2304 34.3481L51.5764 37.5879C52.0577 37.2393 52.8485 36.96 54.1474 36.96V32.96ZM49.2304 34.3481C47.8153 35.3728 47.0114 36.8397 47.0114 38.608H51.0114C51.0114 38.2003 51.1354 37.9072 51.5764 37.5879L49.2304 34.3481ZM47.0114 38.608C47.0114 39.9322 47.4455 41.1589 48.3734 42.1412L51.2814 39.3948C51.1212 39.2251 51.0114 39.0118 51.0114 38.608H47.0114ZM48.4541 42.222C49.2259 42.9509 50.139 43.5219 51.1601 43.9539L52.7187 40.2701C52.0757 39.9981 51.5808 39.6731 51.2006 39.314L48.4541 42.222ZM51.2447 43.9875C52.1856 44.336 53.4314 44.7213 54.9582 45.1436L56.0245 41.2884C54.5433 40.8787 53.4211 40.528 52.634 40.2365L51.2447 43.9875ZM54.9679 45.1463C56.8056 45.6446 58.2417 46.1277 59.3056 46.5877L60.8932 42.9163C59.589 42.3523 57.9532 41.8114 56.0148 41.2857L54.9679 45.1463ZM59.348 46.6055C60.2249 46.961 60.9661 47.5001 61.591 48.2452L64.6558 45.6748C63.6167 44.4359 62.3418 43.503 60.8508 42.8985L59.348 46.6055ZM61.6152 48.2736C62.1083 48.8397 62.443 49.6516 62.4678 50.888L66.467 50.808C66.4277 48.8444 65.8665 47.0643 64.6315 45.6464L61.6152 48.2736ZM62.4674 50.848C62.4674 51.8918 62.1855 52.7876 61.6246 53.5952L64.9101 55.8768C65.9493 54.3804 66.4674 52.6842 66.4674 50.848H62.4674ZM61.6246 53.5952C61.0593 54.4093 60.2251 55.1065 59.0288 55.6526L60.69 59.2914C62.4377 58.4935 63.8755 57.3667 64.9101 55.8768L61.6246 53.5952ZM59.0471 55.6444C57.9083 56.1505 56.53 56.432 54.8674 56.432V60.432C56.9807 60.432 58.9304 60.0735 60.6717 59.2996L59.0471 55.6444Z" fill="#1C1B1F"/>
</svg>
