<svg width="400" height="398" viewBox="0 0 400 398" fill="none" xmlns="http://www.w3.org/2000/svg">
<path d="M198.563 0C97.0125 0 103.35 44.0375 103.35 44.0375L103.475 89.6625H200.375V103.35H64.9625C64.9625 103.35 0 95.975 0 198.45C0 300.9 56.7125 297.275 56.7125 297.275H90.5625V249.725C90.5625 249.725 88.7375 193.013 146.375 193.013H242.475C242.475 193.013 296.475 193.888 296.475 140.825V53.0875C296.475 53.0875 304.675 0 198.563 0ZM145.125 30.675C154.763 30.675 162.562 38.475 162.562 48.1125C162.562 57.75 154.763 65.55 145.125 65.55C142.834 65.5533 140.565 65.1045 138.448 64.2294C136.331 63.3542 134.407 62.0699 132.787 60.45C131.168 58.8301 129.883 56.9065 129.008 54.7894C128.133 52.6723 127.684 50.4034 127.688 48.1125C127.688 38.475 135.488 30.675 145.125 30.675Z" fill="url(#paint0_linear_2502_7)"/>
<path d="M201.438 397.913C302.988 397.913 296.65 353.875 296.65 353.875L296.525 308.25H199.625V294.563H335.025C335.025 294.563 400 301.938 400 199.475C400 97.0125 343.288 100.65 343.288 100.65H309.438V148.188C309.438 148.188 311.263 204.9 253.625 204.9H157.525C157.525 204.9 103.525 204.025 103.525 257.088V344.825C103.525 344.825 95.325 397.913 201.438 397.913ZM254.875 367.238C252.584 367.241 250.315 366.792 248.198 365.917C246.081 365.042 244.157 363.757 242.537 362.138C240.918 360.518 239.633 358.594 238.758 356.477C237.883 354.36 237.434 352.091 237.437 349.8C237.437 340.175 245.237 332.375 254.875 332.375C264.512 332.375 272.312 340.163 272.312 349.8C272.312 359.45 264.512 367.238 254.875 367.238Z" fill="url(#paint1_linear_2502_7)"/>
<defs>
<linearGradient id="paint0_linear_2502_7" x1="38.4375" y1="34.775" x2="236.225" y2="233.225" gradientUnits="userSpaceOnUse">
<stop stop-color="#A03581"/>
<stop offset="1" stop-color="#A03581"/>
</linearGradient>
<linearGradient id="paint1_linear_2502_7" x1="160.112" y1="161.025" x2="372.538" y2="364.538" gradientUnits="userSpaceOnUse">
<stop stop-color="#A03581"/>
<stop offset="1" stop-color="#A03581"/>
</linearGradient>
</defs>
</svg>
