<svg width="75" height="67" viewBox="0 0 75 67" fill="none" xmlns="http://www.w3.org/2000/svg">
<mask id="path-1-outside-1_258_60" maskUnits="userSpaceOnUse" x="0" y="0" width="75" height="67" fill="black">
<rect fill="white" width="75" height="67"/>
<path d="M74 33.4413C74 28.616 67.9439 24.043 58.659 21.2072C60.8017 11.7643 59.8494 4.25156 55.6533 1.84629C54.6861 1.2821 53.5552 1.01485 52.3202 1.01485V4.32579C53.0047 4.32579 53.5552 4.45942 54.0165 4.71182C56.0402 5.86991 56.9181 10.2796 56.2336 15.9512C56.0699 17.3469 55.8021 18.8167 55.4747 20.3163C52.5583 19.6037 49.374 19.0543 46.0261 18.698C44.0173 15.9512 41.9342 13.4569 39.8361 11.2743C44.6869 6.77559 49.2401 4.31095 52.3351 4.31095V1C48.2432 1 42.8865 3.91007 37.4702 8.95815C32.054 3.93976 26.6973 1.05939 22.6054 1.05939V4.37033C25.6855 4.37033 30.2536 6.82014 35.1044 11.2892C33.0212 13.4717 30.938 15.9512 28.959 18.698C25.5962 19.0543 22.4119 19.6037 19.4955 20.3312C19.1533 18.8464 18.9003 17.4063 18.7218 16.0255C18.0224 10.3538 18.8854 5.94415 20.8942 4.77121C21.3406 4.50396 21.9209 4.38518 22.6054 4.38518V1.07424C21.3555 1.07424 20.2246 1.34149 19.2426 1.90568C15.0614 4.31095 14.1239 11.8088 16.2815 21.222C7.02629 24.0727 1 28.6308 1 33.4413C1 38.2667 7.05605 42.8397 16.341 45.6755C14.1983 55.1184 15.1506 62.6311 19.3467 65.0363C20.3139 65.6005 21.4448 65.8678 22.6947 65.8678C26.7866 65.8678 32.1433 62.9577 37.5595 57.9097C42.9757 62.928 48.3324 65.8084 52.4244 65.8084C53.6743 65.8084 54.8051 65.5412 55.7872 64.977C59.9684 62.5717 60.9058 55.0738 58.7483 45.6606C67.9737 42.8248 74 38.2518 74 33.4413ZM54.6266 23.5382C54.076 25.4535 53.3916 27.4282 52.6178 29.4029C52.0077 28.2151 51.3679 27.0273 50.6686 25.8395C49.9841 24.6517 49.255 23.4936 48.5259 22.3652C50.6388 22.677 52.6773 23.0631 54.6266 23.5382ZM47.8117 39.3505C46.651 41.3549 45.4607 43.2554 44.2256 45.0222C42.0086 45.2152 39.7617 45.3192 37.5 45.3192C35.2532 45.3192 33.0063 45.2152 30.8041 45.0371C29.5691 43.2702 28.3638 41.3846 27.2032 39.3951C26.0724 37.4501 25.0457 35.4754 24.1082 33.4859C25.0308 31.4963 26.0724 29.5068 27.1883 27.5618C28.349 25.5574 29.5393 23.657 30.7744 21.8901C32.9914 21.6971 35.2383 21.5932 37.5 21.5932C39.7468 21.5932 41.9937 21.6971 44.1959 21.8753C45.4309 23.6421 46.6362 25.5277 47.7968 27.5173C48.9276 29.4623 49.9543 31.4369 50.8918 33.4265C49.9543 35.416 48.9276 37.4055 47.8117 39.3505ZM52.6178 37.4204C53.4213 39.4099 54.1058 41.3995 54.6712 43.3296C52.722 43.8047 50.6686 44.2056 48.5408 44.5174C49.2699 43.3742 49.999 42.2012 50.6835 40.9986C51.3679 39.8108 52.0077 38.6082 52.6178 37.4204ZM37.5298 53.2625C36.1459 51.8371 34.7621 50.2485 33.3932 48.5113C34.7324 48.5707 36.1013 48.6153 37.4851 48.6153C38.8838 48.6153 40.2676 48.5856 41.6217 48.5113C40.2825 50.2485 38.8987 51.8371 37.5298 53.2625ZM26.4592 44.5174C24.3463 44.2056 22.3078 43.8196 20.3585 43.3445C20.9091 41.4292 21.5936 39.4545 22.3673 37.4798C22.9774 38.6676 23.6172 39.8554 24.3166 41.0431C25.0159 42.2309 25.7301 43.389 26.4592 44.5174ZM37.4554 13.6202C38.8392 15.0455 40.223 16.6342 41.5919 18.3713C40.2528 18.3119 38.8838 18.2674 37.5 18.2674C36.1013 18.2674 34.7175 18.2971 33.3634 18.3713C34.7026 16.6342 36.0864 15.0455 37.4554 13.6202ZM26.4444 22.3652C25.7152 23.5085 24.9861 24.6814 24.3017 25.8841C23.6172 27.0718 22.9774 28.2596 22.3673 29.4474C21.5638 27.4579 20.8793 25.4683 20.3139 23.5382C22.2631 23.0779 24.3166 22.677 26.4444 22.3652ZM12.9782 40.9541C7.71076 38.7121 4.3033 35.7723 4.3033 33.4413C4.3033 31.1103 7.71076 28.1557 12.9782 25.9286C14.2579 25.3792 15.6565 24.8893 17.0999 24.429C17.948 27.3391 19.064 30.3679 20.4478 33.471C19.0789 36.5593 17.9778 39.5733 17.1445 42.4685C15.6714 42.0082 14.2727 41.5034 12.9782 40.9541ZM20.9835 62.1708C18.9598 61.0127 18.0819 56.6031 18.7664 50.9314C18.9301 49.5358 19.1979 48.0659 19.5253 46.5663C22.4417 47.279 25.626 47.8283 28.9739 48.1847C30.9827 50.9314 33.0658 53.4258 35.1639 55.6083C30.3131 60.107 25.7599 62.5717 22.6649 62.5717C21.9953 62.5569 21.4299 62.4232 20.9835 62.1708ZM56.2782 50.8572C56.9776 56.5289 56.1145 60.9385 54.1058 62.1114C53.6594 62.3787 53.0791 62.4975 52.3946 62.4975C49.3145 62.4975 44.7464 60.0477 39.8956 55.5786C41.9788 53.3961 44.062 50.9166 46.041 48.1698C49.4038 47.8135 52.5881 47.2641 55.5045 46.5366C55.8467 48.0362 56.1146 49.4764 56.2782 50.8572ZM62.0069 40.9541C60.7273 41.5034 59.3286 41.9934 57.8852 42.4536C57.0371 39.5436 55.9211 36.5147 54.5373 33.4116C55.9062 30.3234 57.0073 27.3094 57.8406 24.4142C59.3137 24.8744 60.7124 25.3792 62.0218 25.9286C67.2892 28.1705 70.6967 31.1103 70.6967 33.4413C70.6818 35.7723 67.2744 38.727 62.0069 40.9541Z"/>
</mask>
<path d="M74 33.4413C74 28.616 67.9439 24.043 58.659 21.2072C60.8017 11.7643 59.8494 4.25156 55.6533 1.84629C54.6861 1.2821 53.5552 1.01485 52.3202 1.01485V4.32579C53.0047 4.32579 53.5552 4.45942 54.0165 4.71182C56.0402 5.86991 56.9181 10.2796 56.2336 15.9512C56.0699 17.3469 55.8021 18.8167 55.4747 20.3163C52.5583 19.6037 49.374 19.0543 46.0261 18.698C44.0173 15.9512 41.9342 13.4569 39.8361 11.2743C44.6869 6.77559 49.2401 4.31095 52.3351 4.31095V1C48.2432 1 42.8865 3.91007 37.4702 8.95815C32.054 3.93976 26.6973 1.05939 22.6054 1.05939V4.37033C25.6855 4.37033 30.2536 6.82014 35.1044 11.2892C33.0212 13.4717 30.938 15.9512 28.959 18.698C25.5962 19.0543 22.4119 19.6037 19.4955 20.3312C19.1533 18.8464 18.9003 17.4063 18.7218 16.0255C18.0224 10.3538 18.8854 5.94415 20.8942 4.77121C21.3406 4.50396 21.9209 4.38518 22.6054 4.38518V1.07424C21.3555 1.07424 20.2246 1.34149 19.2426 1.90568C15.0614 4.31095 14.1239 11.8088 16.2815 21.222C7.02629 24.0727 1 28.6308 1 33.4413C1 38.2667 7.05605 42.8397 16.341 45.6755C14.1983 55.1184 15.1506 62.6311 19.3467 65.0363C20.3139 65.6005 21.4448 65.8678 22.6947 65.8678C26.7866 65.8678 32.1433 62.9577 37.5595 57.9097C42.9757 62.928 48.3324 65.8084 52.4244 65.8084C53.6743 65.8084 54.8051 65.5412 55.7872 64.977C59.9684 62.5717 60.9058 55.0738 58.7483 45.6606C67.9737 42.8248 74 38.2518 74 33.4413ZM54.6266 23.5382C54.076 25.4535 53.3916 27.4282 52.6178 29.4029C52.0077 28.2151 51.3679 27.0273 50.6686 25.8395C49.9841 24.6517 49.255 23.4936 48.5259 22.3652C50.6388 22.677 52.6773 23.0631 54.6266 23.5382ZM47.8117 39.3505C46.651 41.3549 45.4607 43.2554 44.2256 45.0222C42.0086 45.2152 39.7617 45.3192 37.5 45.3192C35.2532 45.3192 33.0063 45.2152 30.8041 45.0371C29.5691 43.2702 28.3638 41.3846 27.2032 39.3951C26.0724 37.4501 25.0457 35.4754 24.1082 33.4859C25.0308 31.4963 26.0724 29.5068 27.1883 27.5618C28.349 25.5574 29.5393 23.657 30.7744 21.8901C32.9914 21.6971 35.2383 21.5932 37.5 21.5932C39.7468 21.5932 41.9937 21.6971 44.1959 21.8753C45.4309 23.6421 46.6362 25.5277 47.7968 27.5173C48.9276 29.4623 49.9543 31.4369 50.8918 33.4265C49.9543 35.416 48.9276 37.4055 47.8117 39.3505ZM52.6178 37.4204C53.4213 39.4099 54.1058 41.3995 54.6712 43.3296C52.722 43.8047 50.6686 44.2056 48.5408 44.5174C49.2699 43.3742 49.999 42.2012 50.6835 40.9986C51.3679 39.8108 52.0077 38.6082 52.6178 37.4204ZM37.5298 53.2625C36.1459 51.8371 34.7621 50.2485 33.3932 48.5113C34.7324 48.5707 36.1013 48.6153 37.4851 48.6153C38.8838 48.6153 40.2676 48.5856 41.6217 48.5113C40.2825 50.2485 38.8987 51.8371 37.5298 53.2625ZM26.4592 44.5174C24.3463 44.2056 22.3078 43.8196 20.3585 43.3445C20.9091 41.4292 21.5936 39.4545 22.3673 37.4798C22.9774 38.6676 23.6172 39.8554 24.3166 41.0431C25.0159 42.2309 25.7301 43.389 26.4592 44.5174ZM37.4554 13.6202C38.8392 15.0455 40.223 16.6342 41.5919 18.3713C40.2528 18.3119 38.8838 18.2674 37.5 18.2674C36.1013 18.2674 34.7175 18.2971 33.3634 18.3713C34.7026 16.6342 36.0864 15.0455 37.4554 13.6202ZM26.4444 22.3652C25.7152 23.5085 24.9861 24.6814 24.3017 25.8841C23.6172 27.0718 22.9774 28.2596 22.3673 29.4474C21.5638 27.4579 20.8793 25.4683 20.3139 23.5382C22.2631 23.0779 24.3166 22.677 26.4444 22.3652ZM12.9782 40.9541C7.71076 38.7121 4.3033 35.7723 4.3033 33.4413C4.3033 31.1103 7.71076 28.1557 12.9782 25.9286C14.2579 25.3792 15.6565 24.8893 17.0999 24.429C17.948 27.3391 19.064 30.3679 20.4478 33.471C19.0789 36.5593 17.9778 39.5733 17.1445 42.4685C15.6714 42.0082 14.2727 41.5034 12.9782 40.9541ZM20.9835 62.1708C18.9598 61.0127 18.0819 56.6031 18.7664 50.9314C18.9301 49.5358 19.1979 48.0659 19.5253 46.5663C22.4417 47.279 25.626 47.8283 28.9739 48.1847C30.9827 50.9314 33.0658 53.4258 35.1639 55.6083C30.3131 60.107 25.7599 62.5717 22.6649 62.5717C21.9953 62.5569 21.4299 62.4232 20.9835 62.1708ZM56.2782 50.8572C56.9776 56.5289 56.1145 60.9385 54.1058 62.1114C53.6594 62.3787 53.0791 62.4975 52.3946 62.4975C49.3145 62.4975 44.7464 60.0477 39.8956 55.5786C41.9788 53.3961 44.062 50.9166 46.041 48.1698C49.4038 47.8135 52.5881 47.2641 55.5045 46.5366C55.8467 48.0362 56.1146 49.4764 56.2782 50.8572ZM62.0069 40.9541C60.7273 41.5034 59.3286 41.9934 57.8852 42.4536C57.0371 39.5436 55.9211 36.5147 54.5373 33.4116C55.9062 30.3234 57.0073 27.3094 57.8406 24.4142C59.3137 24.8744 60.7124 25.3792 62.0218 25.9286C67.2892 28.1705 70.6967 31.1103 70.6967 33.4413C70.6818 35.7723 67.2744 38.727 62.0069 40.9541Z" fill="#A03581"/>
<path d="M74 33.4413C74 28.616 67.9439 24.043 58.659 21.2072C60.8017 11.7643 59.8494 4.25156 55.6533 1.84629C54.6861 1.2821 53.5552 1.01485 52.3202 1.01485V4.32579C53.0047 4.32579 53.5552 4.45942 54.0165 4.71182C56.0402 5.86991 56.9181 10.2796 56.2336 15.9512C56.0699 17.3469 55.8021 18.8167 55.4747 20.3163C52.5583 19.6037 49.374 19.0543 46.0261 18.698C44.0173 15.9512 41.9342 13.4569 39.8361 11.2743C44.6869 6.77559 49.2401 4.31095 52.3351 4.31095V1C48.2432 1 42.8865 3.91007 37.4702 8.95815C32.054 3.93976 26.6973 1.05939 22.6054 1.05939V4.37033C25.6855 4.37033 30.2536 6.82014 35.1044 11.2892C33.0212 13.4717 30.938 15.9512 28.959 18.698C25.5962 19.0543 22.4119 19.6037 19.4955 20.3312C19.1533 18.8464 18.9003 17.4063 18.7218 16.0255C18.0224 10.3538 18.8854 5.94415 20.8942 4.77121C21.3406 4.50396 21.9209 4.38518 22.6054 4.38518V1.07424C21.3555 1.07424 20.2246 1.34149 19.2426 1.90568C15.0614 4.31095 14.1239 11.8088 16.2815 21.222C7.02629 24.0727 1 28.6308 1 33.4413C1 38.2667 7.05605 42.8397 16.341 45.6755C14.1983 55.1184 15.1506 62.6311 19.3467 65.0363C20.3139 65.6005 21.4448 65.8678 22.6947 65.8678C26.7866 65.8678 32.1433 62.9577 37.5595 57.9097C42.9757 62.928 48.3324 65.8084 52.4244 65.8084C53.6743 65.8084 54.8051 65.5412 55.7872 64.977C59.9684 62.5717 60.9058 55.0738 58.7483 45.6606C67.9737 42.8248 74 38.2518 74 33.4413ZM54.6266 23.5382C54.076 25.4535 53.3916 27.4282 52.6178 29.4029C52.0077 28.2151 51.3679 27.0273 50.6686 25.8395C49.9841 24.6517 49.255 23.4936 48.5259 22.3652C50.6388 22.677 52.6773 23.0631 54.6266 23.5382ZM47.8117 39.3505C46.651 41.3549 45.4607 43.2554 44.2256 45.0222C42.0086 45.2152 39.7617 45.3192 37.5 45.3192C35.2532 45.3192 33.0063 45.2152 30.8041 45.0371C29.5691 43.2702 28.3638 41.3846 27.2032 39.3951C26.0724 37.4501 25.0457 35.4754 24.1082 33.4859C25.0308 31.4963 26.0724 29.5068 27.1883 27.5618C28.349 25.5574 29.5393 23.657 30.7744 21.8901C32.9914 21.6971 35.2383 21.5932 37.5 21.5932C39.7468 21.5932 41.9937 21.6971 44.1959 21.8753C45.4309 23.6421 46.6362 25.5277 47.7968 27.5173C48.9276 29.4623 49.9543 31.4369 50.8918 33.4265C49.9543 35.416 48.9276 37.4055 47.8117 39.3505ZM52.6178 37.4204C53.4213 39.4099 54.1058 41.3995 54.6712 43.3296C52.722 43.8047 50.6686 44.2056 48.5408 44.5174C49.2699 43.3742 49.999 42.2012 50.6835 40.9986C51.3679 39.8108 52.0077 38.6082 52.6178 37.4204ZM37.5298 53.2625C36.1459 51.8371 34.7621 50.2485 33.3932 48.5113C34.7324 48.5707 36.1013 48.6153 37.4851 48.6153C38.8838 48.6153 40.2676 48.5856 41.6217 48.5113C40.2825 50.2485 38.8987 51.8371 37.5298 53.2625ZM26.4592 44.5174C24.3463 44.2056 22.3078 43.8196 20.3585 43.3445C20.9091 41.4292 21.5936 39.4545 22.3673 37.4798C22.9774 38.6676 23.6172 39.8554 24.3166 41.0431C25.0159 42.2309 25.7301 43.389 26.4592 44.5174ZM37.4554 13.6202C38.8392 15.0455 40.223 16.6342 41.5919 18.3713C40.2528 18.3119 38.8838 18.2674 37.5 18.2674C36.1013 18.2674 34.7175 18.2971 33.3634 18.3713C34.7026 16.6342 36.0864 15.0455 37.4554 13.6202ZM26.4444 22.3652C25.7152 23.5085 24.9861 24.6814 24.3017 25.8841C23.6172 27.0718 22.9774 28.2596 22.3673 29.4474C21.5638 27.4579 20.8793 25.4683 20.3139 23.5382C22.2631 23.0779 24.3166 22.677 26.4444 22.3652ZM12.9782 40.9541C7.71076 38.7121 4.3033 35.7723 4.3033 33.4413C4.3033 31.1103 7.71076 28.1557 12.9782 25.9286C14.2579 25.3792 15.6565 24.8893 17.0999 24.429C17.948 27.3391 19.064 30.3679 20.4478 33.471C19.0789 36.5593 17.9778 39.5733 17.1445 42.4685C15.6714 42.0082 14.2727 41.5034 12.9782 40.9541ZM20.9835 62.1708C18.9598 61.0127 18.0819 56.6031 18.7664 50.9314C18.9301 49.5358 19.1979 48.0659 19.5253 46.5663C22.4417 47.279 25.626 47.8283 28.9739 48.1847C30.9827 50.9314 33.0658 53.4258 35.1639 55.6083C30.3131 60.107 25.7599 62.5717 22.6649 62.5717C21.9953 62.5569 21.4299 62.4232 20.9835 62.1708ZM56.2782 50.8572C56.9776 56.5289 56.1145 60.9385 54.1058 62.1114C53.6594 62.3787 53.0791 62.4975 52.3946 62.4975C49.3145 62.4975 44.7464 60.0477 39.8956 55.5786C41.9788 53.3961 44.062 50.9166 46.041 48.1698C49.4038 47.8135 52.5881 47.2641 55.5045 46.5366C55.8467 48.0362 56.1146 49.4764 56.2782 50.8572ZM62.0069 40.9541C60.7273 41.5034 59.3286 41.9934 57.8852 42.4536C57.0371 39.5436 55.9211 36.5147 54.5373 33.4116C55.9062 30.3234 57.0073 27.3094 57.8406 24.4142C59.3137 24.8744 60.7124 25.3792 62.0218 25.9286C67.2892 28.1705 70.6967 31.1103 70.6967 33.4413C70.6818 35.7723 67.2744 38.727 62.0069 40.9541Z" stroke="#1C1B1F" stroke-width="2" mask="url(#path-1-outside-1_258_60)"/>
<mask id="path-2-outside-2_258_60" maskUnits="userSpaceOnUse" x="29.6851" y="25.6561" width="16" height="16" fill="black">
<rect fill="white" x="29.6851" y="25.6561" width="16" height="16"/>
<path d="M37.4851 40.2266C41.2407 40.2266 44.2851 37.1887 44.2851 33.4413C44.2851 29.694 41.2407 26.6561 37.4851 26.6561C33.7295 26.6561 30.6851 29.694 30.6851 33.4413C30.6851 37.1887 33.7295 40.2266 37.4851 40.2266Z"/>
</mask>
<path d="M37.4851 40.2266C41.2407 40.2266 44.2851 37.1887 44.2851 33.4413C44.2851 29.694 41.2407 26.6561 37.4851 26.6561C33.7295 26.6561 30.6851 29.694 30.6851 33.4413C30.6851 37.1887 33.7295 40.2266 37.4851 40.2266Z" fill="#A03581"/>
<path d="M37.4851 40.2266C41.2407 40.2266 44.2851 37.1887 44.2851 33.4413C44.2851 29.694 41.2407 26.6561 37.4851 26.6561C33.7295 26.6561 30.6851 29.694 30.6851 33.4413C30.6851 37.1887 33.7295 40.2266 37.4851 40.2266Z" stroke="#1C1B1F" stroke-width="2" mask="url(#path-2-outside-2_258_60)"/>
</svg>
