<svg width="378" height="73" viewBox="0 0 378 73" fill="none" xmlns="http://www.w3.org/2000/svg">
<path d="M26.664 72.768C21.544 72.768 16.648 72 11.976 70.464C7.304 68.864 3.624 66.816 0.936 64.32L4.488 56.832C7.048 59.072 10.312 60.928 14.28 62.4C18.248 63.872 22.376 64.608 26.664 64.608C30.568 64.608 33.736 64.16 36.168 63.264C38.6 62.368 40.392 61.152 41.544 59.616C42.696 58.016 43.272 56.224 43.272 54.24C43.272 51.936 42.504 50.08 40.968 48.672C39.496 47.264 37.544 46.144 35.112 45.312C32.744 44.416 30.12 43.648 27.24 43.008C24.36 42.368 21.448 41.632 18.504 40.8C15.624 39.904 12.968 38.784 10.536 37.44C8.168 36.096 6.248 34.304 4.776 32.064C3.304 29.76 2.568 26.816 2.568 23.232C2.568 19.776 3.464 16.608 5.256 13.728C7.112 10.784 9.928 8.448 13.704 6.72C17.544 4.928 22.408 4.032 28.296 4.032C32.2 4.032 36.072 4.544 39.912 5.568C43.752 6.592 47.08 8.064 49.896 9.984L46.728 17.664C43.848 15.744 40.808 14.368 37.608 13.536C34.408 12.64 31.304 12.192 28.296 12.192C24.52 12.192 21.416 12.672 18.984 13.632C16.552 14.592 14.76 15.872 13.608 17.472C12.52 19.072 11.976 20.864 11.976 22.848C11.976 25.216 12.712 27.104 14.184 28.512C15.72 29.92 17.672 31.04 20.04 31.872C22.472 32.704 25.128 33.472 28.008 34.176C30.888 34.816 33.768 35.552 36.648 36.384C39.592 37.216 42.248 38.304 44.616 39.648C47.048 40.992 49 42.784 50.472 45.024C51.944 47.264 52.68 50.144 52.68 53.664C52.68 57.056 51.752 60.224 49.896 63.168C48.04 66.048 45.16 68.384 41.256 70.176C37.416 71.904 32.552 72.768 26.664 72.768ZM92.529 20.64C96.689 20.64 100.337 21.44 103.473 23.04C106.673 24.64 109.169 27.072 110.961 30.336C112.753 33.6 113.649 37.728 113.649 42.72V72H104.433V43.776C104.433 38.848 103.217 35.136 100.785 32.64C98.417 30.144 95.057 28.896 90.705 28.896C87.441 28.896 84.593 29.536 82.161 30.816C79.729 32.096 77.841 33.984 76.497 36.48C75.217 38.976 74.577 42.08 74.577 45.792V72H65.361V0.767996H74.577V34.848L72.753 31.2C74.417 27.872 76.977 25.28 80.433 23.424C83.889 21.568 87.921 20.64 92.529 20.64ZM162.289 72V61.248L161.809 59.232V40.896C161.809 36.992 160.657 33.984 158.353 31.872C156.113 29.696 152.721 28.608 148.177 28.608C145.169 28.608 142.225 29.12 139.345 30.144C136.465 31.104 134.033 32.416 132.049 34.08L128.209 27.168C130.833 25.056 133.969 23.456 137.617 22.368C141.329 21.216 145.201 20.64 149.233 20.64C156.209 20.64 161.585 22.336 165.361 25.728C169.137 29.12 171.025 34.304 171.025 41.28V72H162.289ZM145.585 72.576C141.809 72.576 138.481 71.936 135.601 70.656C132.785 69.376 130.609 67.616 129.073 65.376C127.537 63.072 126.769 60.48 126.769 57.6C126.769 54.848 127.409 52.352 128.689 50.112C130.033 47.872 132.177 46.08 135.121 44.736C138.129 43.392 142.161 42.72 147.217 42.72H163.345V49.344H147.601C142.993 49.344 139.889 50.112 138.289 51.648C136.689 53.184 135.889 55.04 135.889 57.216C135.889 59.712 136.881 61.728 138.865 63.264C140.849 64.736 143.601 65.472 147.121 65.472C150.577 65.472 153.585 64.704 156.145 63.168C158.769 61.632 160.657 59.392 161.809 56.448L163.633 62.784C162.417 65.792 160.273 68.192 157.201 69.984C154.129 71.712 150.257 72.576 145.585 72.576ZM215.248 20.64C219.408 20.64 223.056 21.44 226.192 23.04C229.392 24.64 231.888 27.072 233.68 30.336C235.472 33.6 236.368 37.728 236.368 42.72V72H227.152V43.776C227.152 38.848 225.936 35.136 223.504 32.64C221.136 30.144 217.776 28.896 213.424 28.896C210.16 28.896 207.312 29.536 204.88 30.816C202.448 32.096 200.56 33.984 199.216 36.48C197.936 38.976 197.296 42.08 197.296 45.792V72H188.08V21.12H196.912V34.848L195.472 31.2C197.136 27.872 199.696 25.28 203.152 23.424C206.608 21.568 210.64 20.64 215.248 20.64ZM270.896 72.576C265.776 72.576 261.808 71.2 258.992 68.448C256.176 65.696 254.768 61.76 254.768 56.64V9.984H263.984V56.256C263.984 59.008 264.656 61.12 266 62.592C267.408 64.064 269.392 64.8 271.952 64.8C274.832 64.8 277.232 64 279.152 62.4L282.032 69.024C280.624 70.24 278.928 71.136 276.944 71.712C275.024 72.288 273.008 72.576 270.896 72.576ZM246.128 28.704V21.12H278.576V28.704H246.128ZM314.142 72.576C308.702 72.576 303.902 71.456 299.742 69.216C295.646 66.976 292.446 63.904 290.142 60C287.902 56.096 286.782 51.616 286.782 46.56C286.782 41.504 287.87 37.024 290.046 33.12C292.286 29.216 295.326 26.176 299.166 24C303.07 21.76 307.454 20.64 312.318 20.64C317.246 20.64 321.598 21.728 325.374 23.904C329.15 26.08 332.094 29.152 334.206 33.12C336.382 37.024 337.47 41.6 337.47 46.848C337.47 47.232 337.438 47.68 337.374 48.192C337.374 48.704 337.342 49.184 337.278 49.632H293.982V43.008H332.478L328.734 45.312C328.798 42.048 328.126 39.136 326.718 36.576C325.31 34.016 323.358 32.032 320.862 30.624C318.43 29.152 315.582 28.416 312.318 28.416C309.118 28.416 306.27 29.152 303.774 30.624C301.278 32.032 299.326 34.048 297.918 36.672C296.51 39.232 295.806 42.176 295.806 45.504V47.04C295.806 50.432 296.574 53.472 298.11 56.16C299.71 58.784 301.918 60.832 304.734 62.304C307.55 63.776 310.782 64.512 314.43 64.512C317.438 64.512 320.158 64 322.59 62.976C325.086 61.952 327.262 60.416 329.118 58.368L334.206 64.32C331.902 67.008 329.022 69.056 325.566 70.464C322.174 71.872 318.366 72.576 314.142 72.576ZM350.267 72V21.12H359.099V34.944L358.235 31.488C359.643 27.968 362.011 25.28 365.339 23.424C368.667 21.568 372.763 20.64 377.627 20.64V29.568C377.243 29.504 376.859 29.472 376.475 29.472C376.155 29.472 375.835 29.472 375.515 29.472C370.587 29.472 366.683 30.944 363.803 33.888C360.923 36.832 359.483 41.088 359.483 46.656V72H350.267Z" fill="#A03581"/>
</svg>
