<svg width="81" height="81" viewBox="0 0 81 81" fill="none" xmlns="http://www.w3.org/2000/svg">
<rect width="81" height="81" rx="7" fill="#A03581"/>
<path d="M26.9318 44.0341V40.9091H48.75V44.0341H39.6023V70H36.0795V44.0341H26.9318ZM70.0959 48.1818C69.9254 46.7424 69.2341 45.625 68.022 44.8295C66.8099 44.0341 65.3232 43.6364 63.5618 43.6364C62.2739 43.6364 61.147 43.8447 60.1811 44.2614C59.2247 44.678 58.4766 45.2509 57.9368 45.9801C57.4065 46.7093 57.1413 47.5379 57.1413 48.4659C57.1413 49.2424 57.326 49.91 57.6953 50.4688C58.0741 51.018 58.5571 51.4773 59.1442 51.8466C59.7313 52.2064 60.3468 52.5047 60.9908 52.7415C61.6347 52.9687 62.2266 53.1534 62.7663 53.2955L65.7209 54.0909C66.4785 54.2898 67.3213 54.5644 68.2493 54.9148C69.1868 55.2652 70.0817 55.7434 70.9339 56.3494C71.7957 56.946 72.5059 57.7131 73.0646 58.6506C73.6233 59.5881 73.9027 60.7386 73.9027 62.1023C73.9027 63.6742 73.4908 65.0947 72.6669 66.3636C71.8525 67.6326 70.6593 68.6411 69.0874 69.3892C67.5249 70.1373 65.6262 70.5114 63.3913 70.5114C61.308 70.5114 59.504 70.1752 57.9794 69.5028C56.4643 68.8305 55.2711 67.893 54.3999 66.6903C53.5381 65.4877 53.0504 64.0909 52.9368 62.5H56.5732C56.6679 63.5985 57.0372 64.5076 57.6811 65.2273C58.3345 65.9375 59.1584 66.4678 60.1527 66.8182C61.1565 67.1591 62.236 67.3295 63.3913 67.3295C64.736 67.3295 65.9434 67.1117 67.0135 66.6761C68.0836 66.2311 68.9311 65.6155 69.5561 64.8295C70.1811 64.0341 70.4936 63.1061 70.4936 62.0455C70.4936 61.0795 70.2237 60.2936 69.6839 59.6875C69.1442 59.0814 68.4339 58.589 67.5533 58.2102C66.6726 57.8314 65.7209 57.5 64.6982 57.2159L61.1186 56.1932C58.8459 55.5398 57.0466 54.607 55.7209 53.3949C54.3951 52.1828 53.7322 50.5966 53.7322 48.6364C53.7322 47.0076 54.1726 45.5871 55.0533 44.375C55.9434 43.1534 57.1366 42.2064 58.6328 41.5341C60.1385 40.8523 61.8194 40.5114 63.6754 40.5114C65.5504 40.5114 67.2171 40.8475 68.6754 41.5199C70.1338 42.1828 71.2891 43.0919 72.1413 44.2472C73.0031 45.4025 73.4576 46.714 73.505 48.1818H70.0959Z" fill="#1C1B1F"/>
<path d="M26.9318 44.0341H25.9318V45.0341H26.9318V44.0341ZM26.9318 40.9091V39.9091H25.9318V40.9091H26.9318ZM48.75 40.9091H49.75V39.9091H48.75V40.9091ZM48.75 44.0341V45.0341H49.75V44.0341H48.75ZM39.6023 44.0341V43.0341H38.6023V44.0341H39.6023ZM39.6023 70V71H40.6023V70H39.6023ZM36.0795 70H35.0795V71H36.0795V70ZM36.0795 44.0341H37.0795V43.0341H36.0795V44.0341ZM27.9318 44.0341V40.9091H25.9318V44.0341H27.9318ZM26.9318 41.9091H48.75V39.9091H26.9318V41.9091ZM47.75 40.9091V44.0341H49.75V40.9091H47.75ZM48.75 43.0341H39.6023V45.0341H48.75V43.0341ZM38.6023 44.0341V70H40.6023V44.0341H38.6023ZM39.6023 69H36.0795V71H39.6023V69ZM37.0795 70V44.0341H35.0795V70H37.0795ZM36.0795 43.0341H26.9318V45.0341H36.0795V43.0341ZM70.0959 48.1818L69.1028 48.2994L69.2073 49.1818H70.0959V48.1818ZM68.022 44.8295L67.4734 45.6656L67.4734 45.6656L68.022 44.8295ZM60.1811 44.2614L59.785 43.3431L59.7817 43.3446L60.1811 44.2614ZM57.9368 45.9801L57.133 45.3851L57.1281 45.3919L57.9368 45.9801ZM57.6953 50.4688L56.8611 51.0202L56.8665 51.0284L56.8721 51.0365L57.6953 50.4688ZM59.1442 51.8466L58.6117 52.6931L58.6216 52.6992L59.1442 51.8466ZM60.9908 52.7415L60.6457 53.6801L60.6579 53.6845L60.9908 52.7415ZM62.7663 53.2955L63.0263 52.3298L63.0208 52.3284L62.7663 53.2955ZM65.7209 54.0909L65.4609 55.0565L65.467 55.0581L65.7209 54.0909ZM68.2493 54.9148L67.8961 55.8503L67.8992 55.8515L68.2493 54.9148ZM70.9339 56.3494L70.3544 57.1645L70.3647 57.1716L70.9339 56.3494ZM73.0646 58.6506L73.9237 58.1386L73.9237 58.1386L73.0646 58.6506ZM72.6669 66.3636L71.8282 65.8191L71.8253 65.8235L72.6669 66.3636ZM69.0874 69.3892L68.6576 68.4862L68.6555 68.4873L69.0874 69.3892ZM57.9794 69.5028L57.5738 70.4169L57.5759 70.4178L57.9794 69.5028ZM54.3999 66.6903L53.587 67.2728L53.59 67.277L54.3999 66.6903ZM52.9368 62.5V61.5H51.8628L51.9393 62.5712L52.9368 62.5ZM56.5732 62.5L57.5695 62.4141L57.4907 61.5H56.5732V62.5ZM57.6811 65.2273L56.9358 65.8941L56.9452 65.9043L57.6811 65.2273ZM60.1527 66.8182L59.8203 67.7614L59.8311 67.7651L60.1527 66.8182ZM67.0135 66.6761L67.3905 67.6024L67.3975 67.5995L67.0135 66.6761ZM69.5561 64.8295L70.3388 65.4519L70.3424 65.4474L69.5561 64.8295ZM69.6839 59.6875L70.4307 59.0224L70.4307 59.0224L69.6839 59.6875ZM67.5533 58.2102L67.1582 59.1289L67.1582 59.1289L67.5533 58.2102ZM64.6982 57.2159L64.4234 58.1775L64.4305 58.1794L64.6982 57.2159ZM61.1186 56.1932L60.8423 57.1543L60.8439 57.1547L61.1186 56.1932ZM55.7209 53.3949L55.0461 54.1329L55.0461 54.1329L55.7209 53.3949ZM55.0533 44.375L54.2451 43.7861L54.2443 43.7872L55.0533 44.375ZM58.6328 41.5341L59.0427 42.4462L59.0453 42.445L58.6328 41.5341ZM68.6754 41.5199L68.2567 42.428L68.2616 42.4303L68.6754 41.5199ZM72.1413 44.2472L71.3366 44.8408L71.3398 44.8451L72.1413 44.2472ZM73.505 48.1818V49.1818H74.5378L74.5045 48.1496L73.505 48.1818ZM71.0889 48.0642C70.8837 46.3314 70.0297 44.951 68.5707 43.9935L67.4734 45.6656C68.4386 46.299 68.9671 47.1535 69.1028 48.2994L71.0889 48.0642ZM68.5707 43.9935C67.1635 43.07 65.4758 42.6364 63.5618 42.6364V44.6364C65.1705 44.6364 66.4563 44.9982 67.4734 45.6656L68.5707 43.9935ZM63.5618 42.6364C62.1675 42.6364 60.9007 42.8619 59.785 43.3432L60.5772 45.1796C61.3933 44.8275 62.3804 44.6364 63.5618 44.6364V42.6364ZM59.7817 43.3446C58.6891 43.8206 57.7919 44.4952 57.133 45.3851L58.7405 46.5751C59.1613 46.0067 59.7603 45.5355 60.5805 45.1781L59.7817 43.3446ZM57.1281 45.3919C56.4696 46.2973 56.1413 47.3332 56.1413 48.4659H58.1413C58.1413 47.7426 58.3434 47.1212 58.7455 46.5683L57.1281 45.3919ZM56.1413 48.4659C56.1413 49.4065 56.3672 50.2731 56.8611 51.0202L58.5295 49.9173C58.2848 49.547 58.1413 49.0784 58.1413 48.4659H56.1413ZM56.8721 51.0365C57.331 51.7018 57.9144 52.2544 58.6117 52.6931L59.6766 51.0001C59.1997 50.7001 58.8172 50.3342 58.5185 49.901L56.8721 51.0365ZM58.6216 52.6992C59.2647 53.0933 59.9397 53.4205 60.6457 53.6801L61.3358 51.8029C60.754 51.589 60.1979 51.3195 59.6667 50.994L58.6216 52.6992ZM60.6579 53.6845C61.3222 53.9189 61.9406 54.1122 62.5118 54.2625L63.0208 52.3284C62.5125 52.1946 61.9472 52.0186 61.3236 51.7985L60.6579 53.6845ZM62.5064 54.2611L65.4609 55.0565L65.9809 53.1253L63.0263 52.3298L62.5064 54.2611ZM65.467 55.0581C66.1835 55.2462 66.9925 55.5092 67.8961 55.8503L68.6025 53.9792C67.6501 53.6196 66.7734 53.3333 65.9748 53.1237L65.467 55.0581ZM67.8992 55.8515C68.7517 56.1701 69.5698 56.6064 70.3544 57.1644L71.5135 55.5345C70.5935 54.8803 69.6219 54.3602 68.5994 53.9781L67.8992 55.8515ZM70.3647 57.1716C71.1039 57.6834 71.7171 58.3428 72.2056 59.1625L73.9237 58.1386C73.2948 57.0834 72.4875 56.2087 71.5032 55.5272L70.3647 57.1716ZM72.2056 59.1625C72.6516 59.9109 72.9027 60.8743 72.9027 62.1023H74.9027C74.9027 60.603 74.595 59.2652 73.9237 58.1386L72.2056 59.1625ZM72.9027 62.1023C72.9027 63.4889 72.5425 64.7188 71.8282 65.8191L73.5056 66.9082C74.439 65.4706 74.9027 63.8596 74.9027 62.1023H72.9027ZM71.8253 65.8235C71.1265 66.9124 70.0877 67.8057 68.6576 68.4862L69.5171 70.2922C71.2309 69.4765 72.5786 68.3527 73.5085 66.9038L71.8253 65.8235ZM68.6555 68.4873C67.261 69.1549 65.5185 69.5114 63.3913 69.5114V71.5114C65.7339 71.5114 67.7887 71.1197 69.5192 70.2912L68.6555 68.4873ZM63.3913 69.5114C61.4132 69.5114 59.7528 69.192 58.3829 68.5879L57.5759 70.4178C59.2552 71.1584 61.2028 71.5114 63.3913 71.5114V69.5114ZM58.385 68.5888C57.0119 67.9795 55.9658 67.1474 55.2097 66.1037L53.59 67.277C54.5764 68.6386 55.9166 69.6815 57.5738 70.4169L58.385 68.5888ZM55.2127 66.1079C54.4669 65.067 54.0358 63.8504 53.9342 62.4288L51.9393 62.5712C52.0651 64.3314 52.6093 65.9083 53.587 67.2728L55.2127 66.1079ZM52.9368 63.5H56.5732V61.5H52.9368V63.5ZM55.5768 62.5859C55.6874 63.8682 56.1276 64.9907 56.9359 65.8941L58.4263 64.5605C57.9468 64.0245 57.6483 63.3288 57.5695 62.4141L55.5768 62.5859ZM56.9452 65.9043C57.7193 66.7458 58.6863 67.3617 59.8203 67.7613L60.485 65.875C59.6304 65.5739 58.9497 65.1292 58.417 64.5502L56.9452 65.9043ZM59.8311 67.7651C60.9474 68.1442 62.1365 68.3295 63.3913 68.3295V66.3295C62.3356 66.3295 61.3656 66.174 60.4743 65.8713L59.8311 67.7651ZM63.3913 68.3295C64.8444 68.3295 66.1828 68.094 67.3905 67.6023L66.6365 65.7499C65.7041 66.1295 64.6277 66.3295 63.3913 66.3295V68.3295ZM67.3975 67.5995C68.5995 67.0995 69.5933 66.3895 70.3388 65.4519L68.7734 64.2072C68.2689 64.8415 67.5676 65.3626 66.6295 65.7528L67.3975 67.5995ZM70.3424 65.4474C71.1129 64.4668 71.4936 63.3185 71.4936 62.0455H69.4936C69.4936 62.8937 69.2493 63.6014 68.7698 64.2117L70.3424 65.4474ZM71.4936 62.0455C71.4936 60.8835 71.1636 59.8453 70.4307 59.0224L68.9372 60.3526C69.2839 60.7418 69.4936 61.2756 69.4936 62.0455H71.4936ZM70.4307 59.0224C69.7776 58.2891 68.9393 57.7178 67.9484 57.2916L67.1582 59.1289C67.9286 59.4602 68.5107 59.8738 68.9372 60.3526L70.4307 59.0224ZM67.9484 57.2916C67.0221 56.8932 66.0274 56.5473 64.9658 56.2524L64.4305 58.1794C65.4143 58.4527 66.323 58.7697 67.1582 59.1289L67.9484 57.2916ZM64.9729 56.2544L61.3933 55.2317L60.8439 57.1547L64.4234 58.1774L64.9729 56.2544ZM61.3949 55.2321C59.2254 54.6084 57.5774 53.7373 56.3956 52.6569L55.0461 54.1329C56.5159 55.4767 58.4664 56.4712 60.8423 57.1543L61.3949 55.2321ZM56.3956 52.6569C55.2973 51.6527 54.7322 50.3444 54.7322 48.6364H52.7322C52.7322 50.8487 53.4929 52.7129 55.0461 54.1329L56.3956 52.6569ZM54.7322 48.6364C54.7322 47.1994 55.1167 45.989 55.8623 44.9628L54.2443 43.7872C53.2285 45.1852 52.7322 46.8158 52.7322 48.6364H54.7322ZM55.8615 44.9639C56.6406 43.8947 57.6912 43.0536 59.0427 42.4462L58.2229 40.622C56.582 41.3593 55.2463 42.4121 54.2451 43.7861L55.8615 44.9639ZM59.0453 42.445C60.4063 41.8287 61.9441 41.5114 63.6754 41.5114V39.5114C61.6946 39.5114 59.8707 39.8758 58.2203 40.6231L59.0453 42.445ZM63.6754 41.5114C65.4299 41.5114 66.9499 41.8255 68.2567 42.428L69.0941 40.6118C67.4843 39.8696 65.6709 39.5114 63.6754 39.5114V41.5114ZM68.2616 42.4303C69.5831 43.0309 70.5968 43.838 71.3366 44.8408L72.9461 43.6535C71.9813 42.3457 70.6844 41.3346 69.0892 40.6095L68.2616 42.4303ZM71.3398 44.8451C72.0768 45.8332 72.4646 46.9465 72.5055 48.2141L74.5045 48.1496C74.4506 46.4816 73.9293 44.9717 72.9429 43.6493L71.3398 44.8451ZM73.505 47.1818H70.0959V49.1818H73.505V47.1818Z" fill="#1C1B1F"/>
</svg>
