<svg width="93" height="90" viewBox="0 0 93 90" fill="none" xmlns="http://www.w3.org/2000/svg">
<mask id="path-1-outside-1_244_21" maskUnits="userSpaceOnUse" x="6" y="4" width="81" height="82" fill="black">
<rect fill="white" x="6" y="4" width="81" height="82"/>
<path d="M46.5 5C24.6748 5 7 22.9025 7 45C7 67.0975 24.6748 85 46.5 85C68.3103 85 86 67.0975 86 45C86 22.9025 68.3252 5 46.5 5ZM46.5 6.75746C56.576 6.75746 66.067 10.7425 73.2002 17.955C80.3184 25.1425 84.287 34.87 84.2621 45C84.2621 55.2075 80.3333 64.8175 73.2002 72.045C66.1591 79.22 56.5362 83.255 46.5 83.2425C36.4638 83.255 26.8409 79.22 19.7998 72.045C12.6816 64.8575 8.7005 55.13 8.7254 45C8.7254 34.7925 12.6667 25.1825 19.7874 17.955C26.8284 10.7675 36.4638 6.72996 46.5 6.75746ZM44 20.8325C37.569 22.565 32.1316 25.885 24.1968 35.025C16.2619 44.165 17.7657 51.7175 17.7657 51.7175C17.7657 51.7175 19.9567 46.5225 25.2225 41.0525C27.7247 38.4625 29.5796 37.59 30.8643 37.59C32.0046 37.525 32.9657 38.45 32.9657 39.595V58.15C32.9657 59.985 31.7855 60.39 30.6975 60.3625C29.7763 60.35 28.9198 60.025 28.9198 60.025C34.3276 67.915 47.2693 69.0225 47.2693 69.0225L52.9485 62.9275L53.0779 63.045L58.279 67.4975C67.7974 61.82 72.3885 51.3 72.3885 51.3C68.136 55.805 65.4371 56.86 63.8287 56.86C62.4021 56.8475 61.8444 56.0125 61.8444 56.0125C61.7672 55.6225 61.6377 49.97 61.5854 44.32C61.5332 38.4725 61.5854 32.615 61.8718 32.6C63.5175 29.5 68.7584 23.25 68.7584 23.25C58.9687 25.19 53.6381 31.635 53.6381 31.635C52.0571 30.385 48.8404 30.5925 48.8404 30.5925C50.3442 31.425 51.848 33.8475 51.848 35.8525V55.8518C51.848 55.8518 48.5665 58.495 46.0394 58.495C44.5356 58.495 43.6144 57.675 43.1089 56.9975C42.9147 56.7375 42.7454 56.45 42.616 56.1375V31.7625C42.2649 32.0225 41.8367 32.165 41.4109 32.18C40.8657 32.18 40.308 31.9075 39.932 31.1125C39.6457 30.5125 39.4639 29.615 39.4639 28.3C39.4639 23.8075 44.5901 20.8325 44.5901 20.8325H44Z"/>
</mask>
<path d="M46.5 5C24.6748 5 7 22.9025 7 45C7 67.0975 24.6748 85 46.5 85C68.3103 85 86 67.0975 86 45C86 22.9025 68.3252 5 46.5 5ZM46.5 6.75746C56.576 6.75746 66.067 10.7425 73.2002 17.955C80.3184 25.1425 84.287 34.87 84.2621 45C84.2621 55.2075 80.3333 64.8175 73.2002 72.045C66.1591 79.22 56.5362 83.255 46.5 83.2425C36.4638 83.255 26.8409 79.22 19.7998 72.045C12.6816 64.8575 8.7005 55.13 8.7254 45C8.7254 34.7925 12.6667 25.1825 19.7874 17.955C26.8284 10.7675 36.4638 6.72996 46.5 6.75746ZM44 20.8325C37.569 22.565 32.1316 25.885 24.1968 35.025C16.2619 44.165 17.7657 51.7175 17.7657 51.7175C17.7657 51.7175 19.9567 46.5225 25.2225 41.0525C27.7247 38.4625 29.5796 37.59 30.8643 37.59C32.0046 37.525 32.9657 38.45 32.9657 39.595V58.15C32.9657 59.985 31.7855 60.39 30.6975 60.3625C29.7763 60.35 28.9198 60.025 28.9198 60.025C34.3276 67.915 47.2693 69.0225 47.2693 69.0225L52.9485 62.9275L53.0779 63.045L58.279 67.4975C67.7974 61.82 72.3885 51.3 72.3885 51.3C68.136 55.805 65.4371 56.86 63.8287 56.86C62.4021 56.8475 61.8444 56.0125 61.8444 56.0125C61.7672 55.6225 61.6377 49.97 61.5854 44.32C61.5332 38.4725 61.5854 32.615 61.8718 32.6C63.5175 29.5 68.7584 23.25 68.7584 23.25C58.9687 25.19 53.6381 31.635 53.6381 31.635C52.0571 30.385 48.8404 30.5925 48.8404 30.5925C50.3442 31.425 51.848 33.8475 51.848 35.8525V55.8518C51.848 55.8518 48.5665 58.495 46.0394 58.495C44.5356 58.495 43.6144 57.675 43.1089 56.9975C42.9147 56.7375 42.7454 56.45 42.616 56.1375V31.7625C42.2649 32.0225 41.8367 32.165 41.4109 32.18C40.8657 32.18 40.308 31.9075 39.932 31.1125C39.6457 30.5125 39.4639 29.615 39.4639 28.3C39.4639 23.8075 44.5901 20.8325 44.5901 20.8325H44Z" stroke="#1C1B1F" stroke-width="2" mask="url(#path-1-outside-1_244_21)"/>
<path d="M46.5 5.00004C24.6748 5.00004 7 22.9025 7 45C7 67.0975 24.6748 85 46.5 85C68.3103 85 86 67.0975 86 45C86 22.9025 68.3252 5.00004 46.5 5.00004ZM46.5 6.7575C56.576 6.7575 66.067 10.7425 73.2002 17.955C80.3184 25.1425 84.287 34.87 84.2621 45C84.2621 55.2075 80.3333 64.8175 73.2002 72.045C66.1591 79.22 56.5362 83.255 46.5 83.2425C36.4638 83.255 26.8409 79.22 19.7998 72.045C12.6816 64.8575 8.7005 55.13 8.7254 45C8.7254 34.7925 12.6667 25.1825 19.7874 17.955C26.8284 10.7675 36.4638 6.73 46.5 6.7575ZM44.5157 20.8325C38.0846 22.565 32.1316 25.885 24.1968 35.025C16.2619 44.165 17.7657 51.7175 17.7657 51.7175C17.7657 51.7175 19.9567 46.5225 25.2225 41.0525C27.7247 38.4625 29.5796 37.59 30.8643 37.59C32.0046 37.525 32.9657 38.45 32.9657 39.595V58.15C32.9657 59.985 31.7855 60.39 30.6975 60.3625C29.7763 60.35 28.9198 60.025 28.9198 60.025C34.3276 67.915 47.2693 69.0225 47.2693 69.0225L52.9485 62.9275L53.0779 63.045L58.279 67.4975C67.7974 61.82 72.3885 51.3 72.3885 51.3C68.136 55.805 65.4371 56.86 63.8287 56.86C62.4021 56.8475 61.8444 56.0125 61.8444 56.0125C61.7672 55.6225 61.6377 49.97 61.5854 44.32C61.5332 38.4725 61.5854 32.615 61.8718 32.6C63.5175 29.5 68.7584 23.25 68.7584 23.25C58.9687 25.19 53.6381 31.635 53.6381 31.635C52.0571 30.385 48.5 30.5 48.5 30.5C50.0038 31.3325 51.848 33.8475 51.848 35.8525V55.5925C51.848 55.5925 48.5665 58.495 46.0394 58.495C44.5356 58.495 43.6144 57.675 43.1089 56.9975C42.9147 56.7375 42.7454 56.45 42.616 56.1375V31.7625C42.2649 32.0225 41.8367 32.165 41.4109 32.18C40.8657 32.18 40.308 31.9075 39.932 31.1125C39.6457 30.5125 39.4639 29.615 39.4639 28.3C39.4639 23.8075 44.5157 20.8325 44.5157 20.8325Z" fill="#A03581"/>
</svg>
